<mxfile host="app.diagrams.net" modified="2023-11-30T22:32:10.402Z" agent="Mozilla/5.0 (Windows NT 10.0; Win64; x64) AppleWebKit/537.36 (KHTML, like Gecko) Chrome/119.0.0.0 Safari/537.36 Edg/119.0.0.0" etag="MI5edHQtGPtLQY7m6gbW" version="22.1.5" type="device" pages="2">
  <diagram name="Страница — 1" id="o3sYmgAIau1fM3dsohi6">
    <mxGraphModel dx="2953" dy="1527" grid="1" gridSize="10" guides="1" tooltips="1" connect="1" arrows="1" fold="1" page="1" pageScale="1" pageWidth="3300" pageHeight="2339" math="0" shadow="0">
      <root>
        <mxCell id="0" />
        <mxCell id="1" parent="0" />
        <mxCell id="ozB75tdWuCOPc9oadPOf-87" value="" style="shape=image;imageAspect=0;aspect=fixed;verticalLabelPosition=bottom;verticalAlign=top;image=data:image/png,iVBORw0KGgoAAAANSUhEUgAABC8AAAPqCAYAAACzM3W0AAAAAXNSR0IArs4c6QAAB7x0RVh0bXhmaWxlACUzQ214ZmlsZSUyMGhvc3QlM0QlMjJhcHAuZGlhZ3JhbXMubmV0JTIyJTIwbW9kaWZpZWQlM0QlMjIyMDIzLTExLTIxVDEyJTNBMzIlM0EzMC4yOTRaJTIyJTIwYWdlbnQlM0QlMjJNb3ppbGxhJTJGNS4wJTIwKFdpbmRvd3MlMjBOVCUyMDEwLjAlM0IlMjBXaW42NCUzQiUyMHg2NCklMjBBcHBsZVdlYktpdCUyRjUzNy4zNiUyMChLSFRNTCUyQyUyMGxpa2UlMjBHZWNrbyklMjBDaHJvbWUlMkYxMTkuMC4wLjAlMjBTYWZhcmklMkY1MzcuMzYlMjBFZGclMkYxMTkuMC4wLjAlMjIlMjBldGFnJTNEJTIyQnZxdUpxMEhhdVJrc0FDNjJ3dTklMjIlMjB2ZXJzaW9uJTNEJTIyMjIuMS4zJTIyJTIwdHlwZSUzRCUyMmRldmljZSUyMiUzRSUzQ2RpYWdyYW0lMjBpZCUzRCUyMlkweTNjS3YtNEEyYUlNSElhMGtpJTIyJTIwbmFtZSUzRCUyMlBhZ2UtMSUyMiUzRTdadGRlNW93Rk1jJTJGRFpmdFF3ajRjb2xLcTF2VlBSVFgzVktKeWpNZ0RHTzElMkIlMkZRTHI2S2hLMXNERkZzdkVQJTJCRXQ5ODVTYzVKb2dDSDd1RTJNUDNORkZ2SUVTVFJPZ2h3SkVnU1ZKUXUlMkZRcVY1MWlSRkZHTWxYVmdXN0VHanNLOSUyRlJzbFlscHNaMXRvZTFLUVlPd1EyejhWbDlqejBKS2NhR1lRNFAxcHNSVjJUdSUyRnFtMnZFQ1BkTDAySFZCOXNpbTFqdEtlSlJIeU43dlVudkROTDNjODIwY0NKc042YUY5emtKYWdJY0JoaVRlTTg5REpFVDBrdTV4T2ZkdkhBMGU3QUFlYVRNQ1ZKOHdwUHA3SkozUzU2TFBLY3ZHJTJCQ2RaNkd3dkNqQXdYNWpFM1R2bTh2dzZKN2FsMm9iNGpyMEY2Qzc3UDJUUjNwQ0FVR0huSlE4enkzQ0xpTEJNeTJTSEwzS3ZDRnhqeXZZU1lUOUVUWVF1NG00eVpNVzAzUE54TVRyN1BwSENuUW5BVkVNQlY0Y2xMY3prVnZBUkpGclJkSlRPRFBaa2dEJTJGUkVQczRJQXFGbHFaTzRjJTJCOEdDRlBaSTBna0NxMVo5QVpldzZETHZGdlVhJTJGUk5VUW9NcHdwSzlGJTJGZ2JMd3g0S1NkbU9jeWFaanIzMjZNOGxoWVdvUGdnaDJiUXRWNU1Ecm0xWjRXMEtyWE5xdjhZTTBTbXdBJTJCUmhobTZMWFJqMlM1Q0RZbVV1M0dQWXFRdGpQTmNqJTJGeFVGaWt1TnRvTjQyeFVvb1Y1ZUFkRldpM1FwMm5ZanBSZHQxV1ElMkZ2bFElMkZ2aUJGMG9tQVBnWjBiMDBpbEoxZnV6QmVHSXd4aVNLdE1kNzZOcUdPVDBKY1U5T2o4WWdiZ3M1S1ZsQyUyRkhMUWk3NjkybGZJUjBDdndFWm1IaSUyRlFaRnhtcGhoWTdpQVN1QWJpbTMlMkZERFdFTXExJTJCbUFhcXlSdWtMT0d0JTJGMCUyQlJkdGFCeHI3TEdhaVolMkYxNnAlMkZxRlNpd1pGSG94YVBiNmdQR2tycjJQYkppeDNSREF0N2oxbzllVlR5WEpQbXoya0dnbEl2MXVGUTczamxtMlJnamJ5Y2hEQVRDRHlla1pib1ZTV0dCcHRxYmdQTE9UJTJCc00yaGh3a0hYRnlzRHhUbUliQlZmUTRGWUdyczJaN2ptNExHJTJCdkF4eWI1cllIWEVjcDBjYUpCZVM0cEZkOU5qVjltT3RmSjdQYmVnaWVkZW1OQXVYaWlteTZPdExWRyUyQk55YUJiMUpKWFJaRE03WFJ2T3AxTnROdEpHbDhPMHFKT3BpbW5XYk9RVHRNWGdiakpVamNsOGRqRlFDenVnNnFDeXVWSmJTUUs1VE5SZEhjbW1FcGs2U05iWmVBS3hxUXltRHBMMU5wbE5wVFExa0t5NW5XUnpIRjFUUjVyTzhMell1YWhTN1d2UlZCUWZBN0M1VWpSWSUyRm1Id1olMkY3ZURINDJvazNubXJhJTJCNlozWUlCM3VEaUZjYlNNSzhZeUdmeER5RTFMcEZKVXFwcGVpanhGZkxaMjdha2t5RE9VeXVWdlJNQUtYWkRnYm5NMVpaemlmR2RxUGltYkwzJTJCVkFkaWtqZElzNkNDNG1ZQU5wVldUUTgzWmdDYkFqMlRmUmgxTjJVbVlSVFRZUFVJRmpOeEJVVjgwVXdtYVJzakhoYkQ3UzJyR3NScTdScmF0YVZRTUFHMHZPRnROQksySkpUZ2FBRUx6T3YxOFYlMkZ5YUczZVZxR3hYNWJCNmpJN0ZBaTlheDhPbjcyTUY0WTJMY2ZiQTJSVkw2RGJZcDdQaDlHbFNINzFvcVBwZGVpTSUyQjVySHpKQXZ6NGNWNEk4QyUyRlhPNER5ZW84RGkxYkUlMkZNY2lDJTJGcnolMkJCJTJCQjZGanVyeFpRJTJCd00lM0QlM0MlMkZkaWFncmFtJTNFJTNDJTJGbXhmaWxlJTNFlQ4WswAAIABJREFUeF7s3VusdVV5P+DpTXtRAsQbMWBN0LTGtHggJpUQm5Rg4x1qsfQgQWrAUjBtqIag2AieYkvaIEWkFS1iQ0pV0t40Ui+aKE1q2mppiTWB1ChBE0MjSi96wz/vqmP/xze/uQ7v2nu/ex2edcPH3mPNMeYz1px7zd8cc4znDcPw3OBFgAABAgQIECBAgAABAgQIENhQgedFePHcc/KLDe2fuc163vOeFx23bc3WXgIE9lAgzlcVL+fECmV17IqA7xG70pP2o0rAMVMlrR4C0wJxDAovtvTT4QS6pR2n2QT2UEB4sYedbpc3XsD3iI3vIg3cMAHHzIZ1iObsnYDwYou73Al0iztP0wnsmYDwYs863O5uhYDvEVvRTRq5QQKOmQ3qDE3ZSwHhxRZ3uxPoFneephPYMwHhxZ51uN3dCgHfI7aimzRygwQcMxvUGZqylwLCiy3udifQLe48TSewZwLCiz3rcLu7FQK+R2xFN2nkBgmMj5nPf/7zw5vf/OaDFn70ox8d3vWud53S4kVlvv3tb8/ef+GFFw4f//jHD973h3/4h8MTTzwxfOQjHxmuuuqq4aGHHjpN4bLLLhs++MEPzn7/1a9+9ZTfv+QlLxk+85nPDE899dTw7ne/e/bv1772tbMy//iP/zi89a1vHaKtDz/88HD33Xeftu3XvOY1w+c+97nhRS960QbpawqBYRBebPGnwJeOLe48TSewZwLCiz3rcLu7FQK+R2xFN2nkBgn0x0yEEn0w8IMf/GAWJFx00UUHAUaEEA8++OBBENDKnHPOObOwooUXTz/99CkBQwsv+kAjQod3vvOdwx133HEQRLT333TTTcOb3vSmSanY1iOPPDJ8+tOfnv1+3Mb42Srb2aBu0JQ9FhBebHHn+9KxxZ2n6QT2TEB4sWcdbne3QsD3iK3oJo3cIIF2zEwFFdHMCBje9773Dffee++s1VdfffVw6623HoQNLShoPz/vvPNmZSLM+NGPfjQLGM4666zhKMOLvq1Rfwsyop72GocX8f9Tbd+grtCUPRUQXmxxx0996fjt3/7t4bvf/e7ByW9RmpodkjZOdadOrKsMjRsPbYthb+1kvag7Yt/GQ9uqh7W1PwD98L2pIYKb/LEa3yno27rK8MdN3jdt21yByvAizhXnn3/+wZ2vNkT22muvPeVn/R2s8bE9Pre0bTz++OOnIL/jHe84GOob9carv1MWP4thuTFk97777jto11Sb4r3jtu/COWdzP5VaNvU9ol3ELPpbPe94GB8347vMTXzq/W2YexvaPvU3P97f/uZO/X68DT282QLxPTJGLvSved8Jx99vx99X+m3E4w5xrh5vO8r05+x1dNoxMzUKYry9aGOc+8ffcfsw4YorrpiFBPGoSfztiMc5YgTFUYYX0a52zMW/+0dI5oUX69h4D4EKAeFFhfIx1TH+0hEnpvijHq84YbcvAPOGgh32xDh+/6pD4/oQZF5yPUU2dWEwtQ/HxD3b7O///u/Pnk1stsdZ13FsO7yvv/762aYvuOCCU57LXGX443G0yTb3Q6AyvBifF+Kz/eEPf3h42cteNtx5552zu1r9l8pnnnlmdlxffvnlB8fE+HhYZbju+Bw1/rLdBxPti+Tzn//8U54r7stMPQttaO9+HC9Ve7kovFj0t3qVC7fYh3acxb9jqHt7fn7q/eNjbupvfu8y7zvB1F3lKk/15AT6xxnaKICpm3Dzvt+22io/C3140UZYzJsXYl54Ee1u5/oWXsTojJifIua4iPDlgQcemM15sepjI8tuDLbv21H31A1Df1tyn12lT05gMryY90dpfEdonJj2d6Cn0tTYzZZ4ZtLWxjOV4M9L5qvvyJ9EF46/dIRpe/UnvIrwYt7wsv7nMTQuLhAWjeDoh9uN/xhM/XHq/zB86UtfOmXSpDj5R3rd3+Fpn79Wzyte8Yrh9ttvH8Z3a/rPZ/tdtP+Tn/zk8L3vfe9gBEj/mR/fIY3649VP5BT/H5/NSy+9dDj77LMPLpTasXXNNdfMwoXrrrtuFpD0x2K896677ppdfMW+xh+4+AMUF2VT5acClthebCOS/djHGNYYzqsMfzRp00kc5btTZ2V4MT6PxPEVYV2cL9rw3Xa+jLtd80LQ/uer/F3sz1HzvpS3ESGtjWecccZsuHD7gtr/nZ3aRnwiqkPb3fkU2pOxwKrhxfhzt2p4EZ/n+HsXo4/Go6HGz+63C7r4bxwP64QXi75D6P3NE5g6x019Z533/fakw4upz3CvnA0v4ntb+xsQ28mEF4vmvGjH7xe/+MVZ817/+tefNqmo8GLzjg8tmhZYO7wY32VvH/p252rel67WjFXT1qmTQPysT/Dj//fxoOu/dLQ76nERGxfZ7YQaF5wV4cWqQ+PG4cVhR160LzdXXnnlKZMYtc9XfE7CIi7WL7nkkoNgID4z8bP4UhVfkvrPYwsG2izLfR3xnjb0fOza3y2IbfSTOI19+gun9oUtvtiNw4t+yHkLLz70oQ8NN9988yywePnLX35K2NGXnwov+nrbl8oW8Cz7I+wkSuAwApXhRX8+7I+ReGwjjvk4F8SEZe280P49nuwsjtt2F+w73/nO0onS2rkijuV+grb+C/Y4vLjtttuGW2655SBU6YPMqUnVDtMH3ktg3fBi/Ld6lfAi/ka2vytx/LTwPe6wz3t//7cyLsZakDHVc5V3231yjkdg3rVCH+Iu+n57kuHFvO+v/ec+2rfqnBctWG/HRowUjHB71ZEXi8KL8Y2wqe97+3gddTyfals9boG1w4tlfzTuueeeyQlhFoUXyw6ceQn+VHixDxPN9OFFu6PehkT3F6ZHFV6Mh6SFexvJsGq6HOHFeDurPn84Ncpm3rORU+1pf2jiguWFL3zhKRciiz4v7S5nBCTjIYLtd20pq/as4viP2jrhRQwf/MIXvjA7ZCKoaOFFJOYxLDb+oPV/1Mflx+FFXzZ+F22Ku2GxHXerjvtUa/uV4UUfCF588cWnjFiKz3yEf+3L25lnnnkQZIzDi/64iIuvOL7Hc170o6/6c9TU6L/xYyPtfBLDg9tQ9/gC2oLMcajSb3/VuYJ88ggsEsjMedH/rV5lDpj+b8z478+q4cV4nqt+lOTUd4J9GHW7S5/oVcKLRd9vl4UXU3NetFG56zqustpIP5pulUeqxwFHG/07/n68yuOL4/0a31yO36864mVdI+8jcJwCa4cXbaKceV+g1hl50X/hHK+RvCjBnwovjhNtU7bdn0CnHsNpJ72jCi8WPe6RCS/adla5c9NbrzKEtP+i03822+d1/NhIe2yiDy/iTu14Te14X4QX/Z2jaFv7chYXQ+NRJf2Fythn/P/jx0biIikmVGr/beFF/P/P//zPHzyv2L4QTpUfhxdTXzbbF72pu8qb8jnXjt0QqA4v2rEZIy0icIi/Kf1jU3F8Rdgbr3kjL8bhRX+3qh+V0R6piuP4n//5n2fPK8cIqfHkyfPCiz5AacPrYxTWvJEXi863u/FpsRdVAqs8NjL1t3qVv99T4UIL++a9v//umBl5kRnFWWWrnuUCU9cK475c9P12WXhxHPOfjI+Z8cShUzfkFk2GPnXzbNFEt/OWSp26wRh/59ojzP08F1Pbt9rI8s+rEpshsHZ4Ec0fP+PfXyzOm/OiJZ6rpK090aIEf9/Di6lwYupivI0KWHSyz6S6/XPX6855MU6kFx0Wi8KL8YXEvC/37eIh7sb2fwD6/f7yl798yqihtp/93dp2sbLuyIsW1PVhS3ypa4+NxN2lmFsjRnS0OTDiPW2+iv7CK34/VX4cXkz5LRui3oeG5rzYjJP2traiOryIz24ECLH03Bvf+MbZ/DfxNysuiGL+i/h5C8nXnfOif1QshsL3x9jUxdS88CKOrXYOO/fcc4eLLrpo1rZ5fyeFF9t6FGxeu1cJL6LV47/Vy8KLeYFHG200LzDvj6FVblhE29qw+hbQx9/S8SiqzZPXova5GgcM/XfauMEyvjE09X1z2WjwfknQw8pbXviwgt5P4HAChwovxlX3J491Rl4sSs4XJfj7Hl5M3QEcW46/ZM/7I79ueDH15Wac7E6FLJm7JauGF+0uZrTpgx/84PCe97znYI6UPrzo56/oP6/9I09tFYILL7zwYAKx9sz6+A9ob7xszoupY6cfKv7oo4/ORl70z+u38CLuFkcb49Xuzk6V78OLRaNv2heHcZvnJf+HO+Uc3bvbPo3vNkwNCR3vyzh47VsVIWx8buKu93jbqyzDtyjUbfWs+ljbvHLLHvMZ3+XpTXq3PnAej8zpH4fof7fusOzq8KKNSoqQop8jKVYMevbZZ2cjqcYrMh31aiPj8+yi8KIPNJt966t2/un/1kXIscoS00d3xNnSLgqsGl5k57xYNix9/Ohm2FptZBc/YYv3adn8d+M5yGJr84LhPsiaF4wchbDw4igUbYPA+gKT4cWiIUxxR2g8qWCrvr8bdJRzXixL8BdNSrk+zea/s51A513Uj++UjAOgqYu8w4QX7ctHv7pGfwE07wK6/8IS25i39NSi8KK/YIwLzBtvvHH2RSgeC4nnydtzj+1i7bHHHpvVE5MhPfTQQ7MVQNoEnf3FXfz8bW972xAzNMeFQrz6R0qWrTbS7v4su1M6bwRE/5xwH15EqBLPSMZ+xWiMdqd2/Fxxf2y2iQf7ERTji6tVhj9uypEx9XmaF8o1/2j7eLLfzGd+lX3vJ0Wd+pLV2v30009PrrXeBxxxLI3LtX0cL7HZv6+fsLcPN1uw1z4v7ZjqR/iMV7kZTwq7LJieZ1QdXsz78joV9vZfiON8EK9xSLNomHubnDNGekx9gY7jNM4v/YoLUwHU1LPJsb3xubs/76zymVSGwKLj8rnnnjvl16v+rZ6aAyb+/sZIiP7vUr/xFvLHo5Dx734OmXE4PHXTKrbVhuVPfSeYdwz5BGymwNQo7T5Uz3y/nXfuHe/5YecLEl5s5mdJq/ZHYDK8mLrjOk7Ex19gx+9Z9gV3WdraD/FaluDHBeK8P7a73JVOoOv37rI71+tv2TurBFYZTdKvGz+1XF+0dZ3wYtWRE+ML6AjN4gt/C9fa7OJjsxZQjMu183Afzi17nGc8BLefGGzZhXwLOfr2rXvsnER4UfVZVA+BbRXwPWJbe067T0rAMXNS8uol8H8Ck+FF/GI89HlquPQ4Me0nqZk350VLPGNkxngW4Kk0dNmjJG1CtDa8v00Gmbm42NYPgxPo+j237gXY+jV651ELzAsvxn3bz9sxXq5v3fAisy/z7g5OLZ823u66j42Mw4Y2EiN+3o9smjeaYFEYvCyYnmcjvMh8apQlUCPge0SNs1p2R8Axszt9aU+2U2BueLGdu7NfrXYC3a/+trenCqwaXiyb7HfRyIvxnBfZ4abzRjasGq4eNryYWrK3f3xoXnixaDh2mKyz1JzwwhFMYPMEfI/YvD7Ros0WcMxsdv9o3e4LCC+2uI+dQLe48zT90AKLnsvuL9CXTfa7zmMjqzR+/Khd/56K8GLq8b/xqJSpfR9P7jve13Uf0RNerPKpUYZArYDvEbXeatt+AcfM9vehPdhuAeHFFvefE+gWd56mH1pglTkvYo6J8Zroq1zAr3uB3nZq2RLAxx1ezJu0blzv1GSe55xzzsHSg1OdlFkhqH+/8OLQH3kbIHDkAr5HHDmpDe64gGNmxzvY7m28gPBi47tofgOdQLe48zT90AKrrDayymS/Rz3yYt6jIv0OH2d4sShcmFpCOdoVqwPMm9V93NZ5j5os61DhxTIhvydQL+B7RL25GrdbwDGz3f2n9dsvILzY4j5sJ9C2NGObVDWW9IyJS9tFSdvFVSepjO098cQTC+++xjbb8p7vete7TlGcd8G4ygSF63RH3455beq32y7gYtWHWGu+TWAYkznOW6Z1ql1tO48++uhpS162CWv3ZUnD/gI3rGKZvPgM/u7v/u4wb0WNdfp6HADEUqLjeSnafAyrTvY7NTqjXy533M7YfiyjOe/zPPWYyniujKnwYuqzu+qcF2P/qSUMm0u/b61dbcLjsWX7/LbVT9qyhua8OOyn1/sJbIaAC7HN6Aet2B4Bx8z29JWW7qaA8GKL+3UqvHj44Yfn3kXd1fCi78JseBHL7GbDnVa+XRz/8Ic/HH75l395aCFO/Pz6668fvvGNbwxvectbDn6+xR+1pU2fF168973vHe64445h2XKeSytQYOsFjLzY+i60Azso4EJsBzvVLh2rgGPmWHltnMBSAeHFUqLNLdBOoDFMPV4xiuBrX/vabETE1BDwqWf92x3auJMcd1PjzmvczY5XW/q2v+vaysXF6GFGXoyX4u3v5PZ3rvs2xKiIV7ziFcPtt98+9Ev3tnZEm9vyu3HH+Jprrhmuuuqq4aGHHprtT7vLHP+On/cjLz7wgQ8MN9xww2z/Yx9/9md/drjgggsOgoc2uqUfZdL2IdoUd6TvvPPO4ayzzhrCK0YexKttY3wnf7xfZ5xxxkE7e4t+yeF+n8d3z3/0ox8djHCY11/xOfnMZz4zRF3333//bD9jdESYRfv7USJRtn0Oxm4xJ8Ldd9998BmJyTGbc7Txj/7oj2afw9/7vd8b/viP/3j233Dx2m+BqvBiv5XtPQECBAgct8Bzzz133FXYPgECcwSEF1v80ViU/i4LL2K34+L08ssvn12g9ysM3HPPPQePjYznFejLxYXv+eeff9rIglUeG+m386UvfWl2AR0X1k899dTsv/HoS7xiBMN11103+3eEDZdeeulsZElfR9+O8SMk8b4o3+/HJZdcclp4ce+99w79YyMRYky147Wvfe3BJ6aFF69//euHuNhvj0e0oCMevQmfFqJcdNFFM6t+zoC2X9dee+1p/RAu41Uz2v70/Rv1feITn5i197zzzpv1a5jEqJKxc/wuwpFm8OSTTx6EVq2ucGiTXL785S+fWUVg0UKKaEP0T99vUe9xPRa0xYeopncCFXerKurQqQR2ScAxs0u9aV8qBBwzFcrqIDBfQHixxZ+OZeFFuzve72IbOTGe36G/oP7yl798EF6MJx/sR2986EMfmhtetBEQfd1t5EC7II4wIi6w+7kJ+nk7+rv140kC+8cU7rvvvoN2zBsN0s9zsUp4Ee1uF/BhFSMp2siKtk/9NuNxnRZUtMClb1fvMH7Eol8No42OiHBgPFqhzUVy8803nxIU9NuL8KcPPPr+ikBmHIa08Kkv98ADDwyPPPLILKCINrQ2xeMf0dYWwvT1Ci+2+ERS1PSKL3wVdRRxqYZAiYBjpoRZJTsk4JjZoc60K1spILzYym77v0YvCy+iTIw6aK9FF7L9heg4vGiPD7TttIBh3sX5spEX49EBsd0+dOgflegnDOwn01wlvBhPMhj19KMOlk3YGW2KkR5tksLxxKR9eBHbjgDjyiuvPJj0sw93+scwomwzjH/3+9WHF/G7/rGX+P943CTq6AOPcXgxr7/6US0RSvTm4/BiHD5F6BVhxnve857ZCJgInYQXW3zyOIGmV3zhq6jjBOhUSeDYBBwzx0Zrwzsq4JjZ0Y61W1sjILzYmq46vaGHCS8yIy/a4xPjkQDrznmxaOTF1JwSLWToL9j7kRhTIy/Gj2pkR17EnB4RJHzhC1+YwcejK/0jI/GzfptxcR/ti1Di2WefPZg0NUY2XHHFFac8yjEeeTEvvIjHd/oREKuOvJjXX+NRHYvCi6nVZvr9FV5s8YnjhJpe8YWvoo4T4lMtgWMRcMwcC6uN7rCAY2aHO9eubYWA8GIrumm6kYcJL2KL68x5ERfQDz744GwEw6LHRvqL7qhrvOTjvDkv+lEfbdWOfs6LNjfEsjkvxuFFG/mQGXnR5sk499xzDx6h6HtiKhCJyUHbhJstHBiHF/0cFbG9VcKLtpTlhRdeeNpqMovmvOj7q5/HY9HIi37OiwhsWl+1x0aMvNjik8YJNr3iC19FHSdIqGoCRy7gmDlyUhvccQHHzI53sN3beAHhxcZ30fwGHia8iJEFi1aliGBjarWRqVU+xo9TLHtsJC6I5602Mv75+LGRtirHvFVP2iMn8b5oa79ySkj2E2iOHxtpgU78NwKIRSuqRJnxSIQ+KBi/t38U5g/+4A+Gr3/966esdhIThrbRHm3kRAss2goob3vb24YvfvGLsyCl/92NN944216bMLTv176/Vh150drR7Jr1mWeeeTDR6XjkRRtN8+ijj84mDh2PUtniw0zTj0ig4gtfRR1HxGEzBDZCwDGzEd2gEVsk4JjZos7S1J0UEF5scbfu0wl0vMxrRbeNR4tU1LlOHeNJVdfZhvcQOG6BivNVRR3H7WT7BCoFHDOV2uraBQHHzC70on3YZgHhxRb33j6dQKvDizZ6oT2mskkfk/HolH50xSa1U1sI9AIV56tWR3vkK0Yt9a/2SFf8bGpC3/h5G3HWvy8Cwraccz+qKB6pGq/qFMdjTJQcKxTFY2Tj12WXXTb5GJpPC4GTEKg4Lk9iv9RJ4LgEHDPHJWu7BFYTEF6s5rSRpZxAN7JbNIoAgQmBivPVOLy46aabZivj9GFFPFIWPxsvvxxlWujRv6/NvRO/v+CCC4b+MbkIL+LVr+o03vWpenxACGyKQMVxuSn7qh0EjkLAMXMUirZBYH0B4cX6dif+TifQE+8CDSBAYEWBivPVovAimtnPx/PYY4+dsuRw243xKkoRPsQoipgjJ97f5qeJ8sKLFTtfsY0VqDguN3bnNYzAGgKOmTXQvIXAEQoIL44Qs3pTTqDV4uojQGBdgYrz1bLwon/8bLyqTuzX1MiLCCziFSMuIqy49NJLD0ZzCC/W/TR436YIVByXm7Kv2kHgKAQcM0ehaBsE1hcQXqxvd+LvdAI98S7QAAIEVhSoOF9lw4sYTfH444+fsgdthaP4Yb9cc8x1EXNfPPzwwwePiUzNedHPqxHb8NjIih8QxU5EoOK4PJEdUymBYxJwzBwTrM0SWFFAeLEi1CYWcwLdxF7RJgIEpgQqzlfLwot+ZZ7xyIupVXumJvUcL9Mc+2rOC5/5bRWoOC631Ua7CZzU3zLyBAjMFxBebPGnw5eOLe48TSewZwIV56tl4cWyOS9iJMV3v/vdg9VAph4L6efE8NjInn2Id3B3K47LHWSzS3ss4JjZ48636xshILzYiG5YrxFOoOu5eRcBAvUCFeerReFFG0Wx6mojMcLizW9+89CvPBJqfQASv4uXkRf1nyc1Ho1AxXF5NC21FQKbIeCY2Yx+0Ir9FRBebHHfO4FucedpOoE9E6g4X43Di69+9aunKPfzUcybiyLCiQcffHB4+9vfPvz5n//5EO950YtedLCdPgSJ+S+EF3v2Qd6x3a04LneMzO7suYBjZs8/AHb/xAWEFyfeBes3wAl0fTvvJECgVqDifFVRR62a2ggcr4Bj5nh9bX33BBwzu9en9mi7BIQX29Vfp7TWCXSLO0/TCeyZQMX5qqKOPes2u7vjAo6ZHe9gu3fkAo6ZIyc90g0+99xzs6XNb7/99uF1r3vd8Jd/+ZfDueeeO7eOZ599dvbo5yc/+cnhG9/4xmyk5WWXXTa8+93vHs4777wjbZuNHY2A8OJoHE9kK06gJ8KuUgIE1hCoOF9V1LHGrnsLgY0VcMxsbNdo2IYKOGY2tGN+3Kxvfetbw1ve8pbh6aefnk3AHcHEb/7mb042OpZDf8c73jE88MADw0UXXTS86lWvGr75zW/Oljh/5StfOXzqU58aXvrSl272Du9h64QXW9zpTqBb3HmaTmDPBCrOVxV17Fm32d0dF3DM7HgH270jF3DMHDnpkW7w/vvvH2IlsBtuuGH4whe+MPzCL/zC8IlPfGL4iZ/4idPq+Yu/+Ivh+uuvH66++uohJvP+yZ/8ySFGbsSojfe///3DddddN3zkIx8Zos+9NkdAeLE5fZFuiRNomswbCBA4IYGK81VFHSfEp1oCxyLgmDkWVhvdYQHHzOZ2bjwCEkHEf/zHfwx/9md/NvzJn/zJ8G//9m/DZz/72eHVr371KQ1vZad+H6M23vrWtw7f//73h7/6q78aXvziF2/uTu9hy4QXW9zpTqBb3HmaTmDPBCrOVxV17Fm32d0dF3DM7HgH270jF3DMHDnpkW3wX/7lX4bf+I3fGC644ILh3nvvHT7zmc/MRmHceuutwy233HJKPf/5n/85XHHFFcNP//RPDzEC4+yzzz7l9zFvxqc//enhvvvuG97whjccWRtt6PACwovDG57YFpxAT4xexQQIJAUqzlcVdSR3W3ECGy3gmNno7tG4DRRwzGxgp/y4Sbfddtvwvve9bzbPRcxlEfNX/Pqv//rwUz/1U6dN3NmWPb/00ktn5cevWDY9Ju2MYOPKK6/c3J3ew5YJL7a4051At7jzNJ3AnglUnK8q6tizbrO7Oy7gmNnxDrZ7Ry7gmDly0iPZYEzO+Wu/9mvDD3/4w1lQ8TM/8zPD//7v/w6/8zu/M5uQczxx59/8zd/MRmnEZJ5T4UU8LvKrv/qrs7kwYhSG1+YICC82py/SLXECTZN5AwECJyRgwqsTglctAQIECBypQEzq6LVZAn/7t387m+8iljn90z/904MJOtvPf+mXfmn2KEmMwojX5z//+eHNb37zbITGVHjRfi+82Kx+jtYILzavT1ZukfBiZSoFCRA4YYGK81VFHSfMqHoCRyrgmDlSThvbAwHHzOZ1cj/CIuapiFCivZ588snZoyP/9V//NZu/4hd/8RdnvzLyYvP6cdUWCS9WldrAck6gG9gpmkSAwKRAxfmqog7dS2CXBBwzu9Sb9qVCwDFToZyro02++bWvfW3hG2+88cYh5rKIPjTnRc54k0oLLzapN5JtaSfQb3/727OU8atf/eopW2hDoeb9PoZWRUJ51llnHbyvDZNqP5g3XCrKxdrHn/vc52bi6pVbAAAgAElEQVRFp+p/yUteMpvp97Wvfe2szLxt/+AHPxiuuuqq4aGHHjpNYKqN40Kx3ZhUp6+rlVl1f+JkFq/W5nC56aabZj/rh5PFyS4mA4qhZy960Yvm9tiq5aJ90e5xPyQ/CooT2HiBii98FXVsPLQGEkgIOGYSWIoS+PGQdY+NbNZH4c477xxuuOGG4fWvf/3wspe97LTGPfPMM8Pf/d3fDeeee+7BfBgxEuNXfuVXZt/lp76DW21ks/q4b43wYnP7ZmnLxuFFXGy/6U1vmr2vBQKxTvFrXvOaWbgw9fuLLrroYCKauIB/8MEHZ4FEHMxtG+ecc85pz4NNhRf99pcFDG3bff3xnrjof+c73znccccdB6HHIojYzvXXXz8rEksj9ZPqjEONeXXGe/vw4uGHH57tbyyvJLxY+jFUgMBKAhUXSRV1rLSzChHYEgHHzJZ0lGZujIBjZmO6YtaQp59+eohrnX//938/5bGQvpXPPvvsbD6MmITzYx/72Oy64X/+53+Gt7/97cO//uu/Dp/97GeHV7/61Qdv+f73vz+byPO///u/Z+958YtfvFk7veetEV5s8QdgUXgRuxUX3+eff/5sHeNxeNEu2J944onZhXqMzogDO9ZCbiMlosy8n2fCi0VBxXgUwzi8WDaCIX5/1113zU5cEUC0ERGZOmM/Y3/i9cIXvnCIYWdht0p40YadPf7447OQaDwSpf3sO9/5zqyNfbkIiIy82OIDUNNTAhVf+CrqSO20wgQ2XMAxs+EdpHkbJ+CY2awu+Yd/+IfZUqY/93M/NxvJ/PznP3+ygffff//se/3rXve6g3Jx/RMjt2P0d4wmj8k8Y1TN7bffPrz//e8frrvuutnPTTi+WX0uvNis/ki1ZlF40R4VidEQq4y8mHcRPS8EyIQXmdEUmbItgIn/xoiLOCnFes0x+iS7nSn4ZeFFvCdCocsvv/yg/liqKYafPfbYYwePl7RybWRKbLeV+9KXvuSxkdSnXuFtFaj4wldRx7b6azeBKQHHjM8FgZyAYybndZylI2iI7/8RNrQRFfPq+9a3vjW85S1vGeKmbUzc+YY3vGE2auOaa66Z3XiMkeCvetWrhm9+85uza4hXvvKVw6c+9anhpS996XHugm2vISC8WANtU96ybM6LNl/FsjkxYn8WjQBoIzjGj2Qsm/OizVfRX8gvmici2pEJHdojI5GMxmiR2If2yMeyERur9GHs9913331a0X40RT9ypG97vKn9LuYiaVax/33b4nfmvFilN5TZdoGKL3wVdWx7P2g/gV7AMePzQCAn4JjJeR1n6RZIxGMh8ejHK17xirnV9UFHP3FnzIcRI7f/+q//evjGN74xe2w+rl9iRMZ55513nM237TUFhBdrwm3C25Y9NtLa2I/CmDcq4SjCi3lzXmQCiWzZ9ihG29c+WMjMnTHVn8tGXoxDif4Rm3F40S/bFL9rE4M+9dRTwotNOJi04dgFKr7wLQt0+wmA+0e++p1v55AWtMaXmvgS015xh6bNLRQ/G084PH7/vLXk23k5thHbjPPJ1Jrz43L9I2hT7W6/v/baa0+ZA6gPoaeC2X6t+3mBdztvxRe6qUmaxzbH/qFSwaEFKo7LQzfSBghskIBjZoM6Q1P2UkB4scXdvm54Ebs8npxzlTkvYphVzKERIzAyj43Me/Qk6mwBQ7tQyIQXU+FC+4Iew8DiGbbxhKBTdc77CCwLL+IiYdWRF/NGV5jzYosPQE1PCVR84Vt0Thyfh1Y510ydJ/v5g9pFfnt0LEDGEwXH/3/4wx8ezj777FNWKRr/PMKLVcrFeWdRMNtCmXjut02+HO0ahxfxs7aS0nhy5nHgPe7oqd+3emPEXx/upD4kCpcLVByX5TulQgLHKOCYOUZcmyawgoDwYgWkTS1ymPBiKlBYttpI/L5N8Bn/fuSRR2bzO8SQq6kJQXu3eSt/jFcyWeWCIrY778t1366YT6JfQnXR6ilTfbwsvIj3rDPnRe/ssZH1j65VlgBednf9Qx/60KwB/XK47UJv6uertHZc57zlhqc+X+Ptz3v8qT8W53122yNP45EAffv6u+2L2t2PPujfs4pHK1PxhW/ZObF3W3aumXeO6QPHe+655+Cc2Fv09bTyZ5xxxvDGN77x4MI++v8FL3jB8JWvfGUWarRzwbJyq4QXEarGdvrz66LwItree7SRFfNG061y/u2X4M58TpStFag4Lmv3SG0EjlfAMXO8vrZOYJmA8GKZ0Ab/ftkX9db0RV/C+4v7KN+GOLf39hde/fDoNnw45pqYdxEZ2+iHEY+3PXURtOpqI/3Ij34ejfHdv1XqnNfFy8KLNn/F1Coii4Z693ZGXqx/gE19rrN316c+R8vuOi9q8XgelnkXyPMeJei3Pe8OegsS5oUI/dwv4yCm37dLLrnkYHRSjFSKpcPa/DHj+VtiRZ9YRz1eUyOaVunFii98RznyYt45pu1rvxz1eKRB/94WSsSzuN/73vcOVneK0RNx7ojgrA8vlpVbNby47bbbhltuueVgBall4cWy5bX7Pp53jBzFXEOrfJaUOTqBiuPy6FprSwROXsAxc/J9oAX7LSC82OL+dwLd4s7T9EMLLLr720YIrXN3vb/wjJEZ7VGpdRo8NcKpPboU2xuPPGp1tJFKMalU/LstAdxWqukvcJe1q9+f8aNO/Uil/k75vEe9oq5loz7mtafifLVszotFI01au1uZZcHiovBialLe6Lu2nHMEGjG5cCzv1k/sG4+XLSs3b86L1u6+7gceeOBghFyMomif5algdiq8iHb2rzZnyLzRdsKLZUfj5v2+4rjcvL3WIgLrCzhm1rfzTgJHISC8OArFE9qGE+gJwat2IwSOYuRF7Mj4Qm5qdZ11d3iqjW37EbDEa/zISl/Xuo+N9NsYP0rVz78yb3TBvGBoUaixzKjifDVv5MVUiLUs2DrMyIup8OKOO+4Ybr755tnoljZ/0MUXX3xaeLGs3KojLyLwOvPMM2cjZWKER4Qli8KLZctr9/27aDRfv7LSss+E35+8QMVxefJ7qQUEjk7AMXN0lrZEYB0B4cU6ahvyHifQDekIzTgRgVWWAJ4350V/B76/wx53lK+++uqDofaH3bFxMBLtaY9gxJ3w4w4vxhfo45EW8y7Qp+7Mt0ddxnNorGpUcb5a9NjIeE6fZeHFokcjWh9m5ryI+YGifDw68vWvf332GYvXeOTFsnKZ8CIebWt9fO655x5MYDzvkbg2Eag5L1b9VG9/uYrjcvuV7AGB/y/gmPFpIHCyAsKLk/U/VO1OoIfi8+YtF1hlCeBlF6hB0K+08+Uvf/lgmP1hJxxsj3jExWhsazwfxnFO2Bn7NbX6w/hRiKnwYtzu8cdk2YiEeR+rivPVUc55Efsxb7WRtrrIqquNtNEuMYlwTPLbHr947LHHJsOLReWy4UXsR1satc1hNP7sWW1ky0+Gh2h+xXF5iOZ5K4GNE3DMbFyXaNCeCQgvtrjDnUC3uPM0/dACU3fGs3fXoxHtwi3mkYg74jHE/jBLPc5b1WaVUSBjlHUfGxmv7tO2O95ePxIjysQjBvPm4ei3sWipzk0NL6JdvUv8f5tst29zP6FuCzBiYuP2Gq8e009kHGXGI1PGI3v6FYqmHi/pV3BqIUlfbt6cF63d0YZ+Cef4/3HI0sKMfr/70UjLJmGOfYz9GM+J0U/QfOgD3AZKBHyPKGFWyQ4JOGZ2qDPtylYKCC+2stv+r9FOoFvceZp+aIGjmvOiv0Bd95GIfmdWGVER5Vcpt054sWi0ybzVRt71rnfNbc94tMa8ST6XdWjF+aqijmX76fcEtknAMbNNvaWtmyDgmNmEXtCGfRYQXmxx7y8aIt0uyNqqC0e5m+O7gOO7fFN1tQugmIyuLREYF4rZ+QXmLTE5Xpq0Xz71KPd9k7bVr/oQF8KXXnrp8Pjjjw/H0eebtN+tLassARxlV7m73kZFhGE/gWZ28s55d6zHd+vH4UX/6EosP9xeq4YX4xUm+pECsa0+lOlHgLS77cva3ZZnHW8r87mo+MJXUUdmn5UlsOkCjplN7yHt2zQBx8ym9Yj27JuA8GKLe/ykwouebNWl8aaWHZx3wbaoS2I7H/7wh4ezzz77YPnIKD/v51vcvUubPi+8iDfGnXQvApskUPGFr6KOTTLVFgKHFXDMHFbQ+/dNwDGzbz1ufzdNQHixaT2SaE82vGijFqKKNmFcTCTY/7zdoW1L7MU8APfff//sjn67e9wCiw984APDDTfcMHvuub0v/h3PQrdXewZ6PPIiysTvHnrooSGe1f6t3/qt4Z/+6Z+GNrlhvypDP3Fi284ZZ5wxvPGNbzyYmyDukL/gBS8YvvKVrxyEGv3d4vY8+Mtf/vKD5/rvvvvuWTPHK09MtT/Kte3FtuLueLSh3aXvnyEfO4Xh7bffPtvP+F0sJRhOfb393fD+Lnnsb6vj7//+72fbiMn/nnrqqQPn2M4FF1wwvPKVr5z9PF6HmbMh8RFUlMDKAhVf+CrqWHmHFSSwBQKOmS3oJE3cKAHHzEZ1h8bsoYDwYos7PRNe9CsPXHLJJQcX8DfffPMpj27EBXq8rrnmmlmZJ598chYy9DPcx+/boyLx8/7f/UR+/bPxMXt+XHTPe2wklubrHyFp7RiPIGjhRQQCseRgXNjHCI72KEr8/7333jsLByIkiLbHIyRtfoH4WexXvCIoiXbFEPtoW7zmtT9WBRgvI3jhhRfO6u/3M8rFYwoRUrzwhS+c/fvaa6+djYSINjz88MOn1TVelrBf7aGtOhD70fdbq3dfHhHZ4sNU038sUPGFr6IOHUpglwQcM7vUm/alQsAxU6GsDgLzBYQXW/zpGIcX45nfY9fa3f15SyR+7GMfG9773vcOt95662w0QXu1GfQvuuiig0cQ2vP/F1988WR4MZ5noq9zWXgRdbd5G+Ii/frrrx+uu+66U9oUbWvbjLIRGrSgIkKBK6+88rRZ9tv+tEcsWnjR9mvRoyt9+++5555T5pKYt72or3cahyEtbOjrjdESfdAyXoGg/13/qEj/7y3+GGv6nghUfOGrqGNPustu7omAY2ZPOtpuHpmAY+bIKG2IwFoCwou12DbjTZmRF+MVAuYtvdceJ4k9jBEK/bKRq4QX4yX42vZWCS8iLGghxF133TXceeedQ//ISB9exAiOGDUSAcd99903nH/++UMfqrTHXuKxlPaKIKeFF22/xuHFvPbfdNNNs820RzjG4UVfTwuNxmFKHzaMw4v+UZV4f/94SIwKaY/TCC8249jTirxAxRe+ijrye+4dBDZXwDGzuX2jZZsp4JjZzH7Rqv0REF5scV9nwot5Iy/aYxWNYd6Ign4kxryRF+NHNbIjL9rjH3HhHvNXTE06OR4NEY+OfP3rX5+NHIlXe4TlgQceGB555JHTLvoXhRfjERCZkRd9yNMsx5OZLgov+oCi/0hOLVPZRm8YebHFB+8eNr3iC19FHXvYdXZ5hwUcMzvcuXbtWAQcM8fCaqMEVhYQXqxMtXkFM+HFvDkvpkYHxJ62OS/i33HXv5/zoQ8J+jkv+vCijXxo719l5EWU7eeF6B9jafrjQCRGLLTRHdHGqfDimWeemU1uGXNUrBpejNu/6pwXra7LL7/8lJEg8UjNvPBiPOdFlHvwwQdn83WEqZEXm3fsaVFeIM5XXgQIECBAYNsFnnvuuW3fBe0nsLUCwout7bphyIQXsZvzVhvpV+UYPzZyzjnnDG1VjrZySD+iILbbHnmIkOM973nPwQoiN95446zONi/FeMLONgHlo48+OrtAj7BiaknVvov63/dBQYzSmGpXWwnlbW972/DFL37xlAlDY0WO/vGNthJJWwGlb38LH2Jyz1gN5HWve93w7LPPTq420uYZWXXkRex3v9pIe2RkyqMPQFp/9quWbPHHWdN3XKDiblVFHTveTXZvzwQcM3vW4Xb30AKOmUMT2gCBQwkILw7Fd7JvPs4TaHtMZOpxiOPc6zavxtQjI8dZb2bbU5OZZt6vLIF9FDjO81XzrKhjH/vOPu+ugGNmd/vWnh2PgGPmeFxtlcCqAsKLVaU2sNxxnkCrw4tWXzC3ySk3ibwftRLtMtphk3pHW7ZB4DjPV8KLbfgEaOMmClQcl5u439pEYF0Bx8y6ct5H4GgEhBdH43giW3ECPRF2lRIgsIZAxfmqoo41dt1bCGysgGNmY7tGwzZUwDGzoR2jWXsjILzY4q52At3iztN0AnsmUHG+qqhjz7rN7u64gGNmxzvY7h25gGPmyEltkEBKQHiR4tqswk6gm9UfWkOAwHyBivNVRR36mMAuCThmdqk37UuFgGOmQlkdBBZ/n4z1656z7M/2fUycQLevz7SYwL4KVJyvKurY1/6z37sp4JjZzX61V8cn4Jg5PltbJrCKgJEXqyhtaBkn0A3tGM0iQOA0gYrzVasjlkCOJZxjqeT+1Sbabb+/6aabhlgyub36pYj75Yvb72OZ5FgyOpZOjt+/853vnC2/HMsa96+pVZP6JamjbFt6un9fTAwcyzG3paOn2tDKf/SjHx0uvvji4X3ve99sOepoU7za5Mex5HO8+jbH/0c7PvGJTxzUET/rl4we74uP8m4LVByXuy1o7/ZNwDGzbz1ufzdNQHixaT2SaI8TaAJLUQIETlSg4nw1Di/6cKJfQSku6CPcWBZejMOJCCXi9fGPfzwVXkRg8OCDDx4EH1PhSbTv+uuvn23/ggsuGMbLRcc2HnnkkVNWY4pwow8v2nYvv/zyg/ePA5EWovQrJgkvTvTQONHKK47LE91BlRM4YgHHzBGD2hyBpIDwIgm2ScWdQDepN7SFAIFFAhXnq0XhRbStjYi44oor1govIgiIURGxnPNjjz220siLeaM8+m2dddZZszDkrrvuGt761rfORkf0oymi7auEF/3Ikb4v+p+37Tz55JMH4Y3wYn+P3Yrjcn917fkuCjhmdrFX7dM2CQgvtqm3Rm11At3iztN0AnsmUHG+WhRe9CHCYUZenH/++bNRDas+NhIhxUc+8pGDURfzuj1ChXjFtiNkufTSS097pGXRyIszzzxzuOqqq2bhR/8oTGyzb8MDDzwwPPHEE7PttyDmmWeeGa6++urh1ltvPe0RmD37mO7d7lYcl3uHaod3WsAxs9Pda+e2QEB4sQWdNK+JTqBb3HmaTmDPBCrOV8vmvIh5IiIcWHfOi8suu+zgsY1MeNFCghhhMfVqj4xcd911s/AgwoaHH3549nhKey0bebEovOgfL2nhRQQqEXZcdNFFQ4xEEV7s2QH5492tOC73U9Ze76qAY2ZXe9Z+bYuA8GJbemqinU6gW9x5mk5gzwQqzlfLHhtp5KuGF+M5L/oRDN/5zndWemxklZEXyyYHjXYfdXjR5u2IOTNuu+224ZZbbjHyYs+OydjdiuNyD1nt8g4LOGZ2uHPt2lYICC+2opumG+kEusWdp+kE9kyg4ny1anjRT97ZP2KxbELOfm6I6L5VVhuZF5S0OS7uvPPO2dwT8epHWoxXLFkWXsRqI6vOeRGPjbS6op7vfve7w49+9CPhxZ4dk8KLPexwu3xogYq/ZYdupA0Q2GEB4cUWd64T6BZ3nqYT2DOBivPVquFF0LeL9ph8s02YGfNFxKMlEWhMPRayzsiLqGveaiOxKsiiyUP7OS5WCS9WXW2kDy/ae55++ulTlk/ds4/n3u5uxXG5t7h2fCcFHDM72a12aosEhBdb1FnjpjqBbnHnaTqBPROoOF9lwosWYNx9990HPfG5z33uYLLLqUc5XvKSlxxc4C/6/X333Te0iT3bxtsSpe3/2/wb8x4radtvYcoq4UVsu40qeeihh2ZVxeSksV8xMqMFKX14ET8bL6e6Zx/Nvd7diuNyr4Ht/M4JOGZ2rkvt0JYJCC+2rMP65jqBbnHnaTqBPROoOF9V1LFn3WZ3d1zAMbPjHWz3jlzAMXPkpDZIICUgvEhxbVZhJ9DN6g+tIUBgvkDF+aqiDn1MYJcEHDO71Jv2pULAMVOhrA4Ci79PPm8Yhueee+45Tlsm4AS6ZR2muQT2WKDifFVRxx53oV3fQQHHzA52ql06VgHHzLHy2jiBpQJGXiwl2twCTqCb2zdaRoDAqQIV56uKOvQrgV0ScMzsUm/alwoBx0yFsjoIzBcQXmzxp8MJdIs7T9MJ7JlAxfmqoo496za7u+MCjpkd72C7d+QCjpkjJ7VBAikB4UWKa7MKO4FuVn9oDQECi5Py43480TnRJ5BATsAxk/NSmoBjxmeAwMkKCC9O1v9QtTuBHorPmwkQKBSoOF9V1FFIpioCxy7gmDl2YhXsmIBjZsc61O5snYDwYuu67P832Al0iztP0wnsmUDF+aqijj3rNru74wKOmR3vYLt35AKOmSMntUECKYGD8CL1LoUJECBAgAABAgQIECBAgAABAoUClkotxFYVAQIECBAgQIAAAQIECBAgkBPw2EjOS2kCBAgQIECAAAECBAgQIECgWEB4UQyuOgIECBAgQIAAAQIECBAgQCAnILzIeSlNgAABAgQIECBAgAABAgQIFAsIL4rBVUeAAAECBAgQIECAAAECBAjkBIQXOS+lCRAgQIAAAQIECBAgQIAAgWIB4UUxuOoIECBAgAABAgQIECBAgACBnIDwIuelNAECBAgQIECAAAECBAgQIFAsILwoBlcdAQIECBAgQIAAAQIECBAgkBMQXuS8lCZAgAABAgQIECBAgAABAgSKBYQXxeCqI0CAAAECBAgQIECAAAECBHICwoucl9IECBAgQIAAAQIECBAgQIBAsYDwohhcdQQIECBAgAABAgQIECBAgEBOQHiR81KaAAECBAgQIECAAAECBAgQKBYQXhSDq44AAQIECBAgQIAAAQIECBDICQgvcl5KEyBAgAABAgQIECBAgAABAsUCwoticNURIECAAAECBAgQIECAAAECOQHhRc5LaQIECBAgQIAAAQIECBAgQKBYQHhRDK46AgQIECBAgAABAgQIECBAICcgvMh5KU2AAAECBAgQIECAAAECBAgUCwgvisFVR4AAAQIECBAgQIAAAQIECOQEhBc5L6UJECBAgAABAgQIECBAgACBYgHhRTG46ggQIECAAAECBAgQIECAAIGcgPAi56U0AQIECBAgQIAAAQIECBAgUCwgvCgGVx0BAgQIECBAgAABAgQIECCQExBe5LyUJkCAAAECBAgQIECAAAECBIoFhBfF4KojQIAAAQIECBAgQIAAAQIEcgLCi5yX0gQIECBAgAABAgQIECBAgECxgPCiGFx1BAgQIECAAAECBAgQIECAQE5AeJHzUpoAAQIECBAgQIAAAQIECBAoFhBeFIOrjgABAgQIECBAgAABAgQIEMgJCC9yXkoTIECAAAECBAgQIECAAAECxQLCi2Jw1REgQIAAAQIECBAgQIAAAQI5AeFFzktpAgQIECBAgAABAgQIECBAoFhAeFEMrjoCBAgQIECAAAECBAgQIEAgJyC8yHkpTYAAAQIECBAgQIAAAQIECBQLCC+KwVVHgAABAgQIECBAgAABAgQI5ASEFzkvpQkQIECAAAECBAgQIECAAIFiAeFFMbjqCBAgQIAAAQIECBAgQIAAgZyA8CLnpTQBAgQIECBAgAABAgQIECBQLCC8KAZXHQECBAgQIECAAAECBAgQIJATEF7kvJQmQIAAAQIECBAgQIAAAQIEigWEF8XgqiNAgAABAgQIECBAgAABAgRyAsKLnJfSBAgQIECAAAECBAgQIECAQLGA8KIYXHUECBAgQIAAAQIECBAgQIBATkB4kfNSmgABAgQIECBAgAABAgQIECgWEF4Ug6uOAAECBAgQIECAAAECBAgQyAkIL3JeShMgQIAAAQIECBAgQIAAAQLFAsKLYnDVESBAgAABAgQIECBAgAABAjkB4UXOS2kCBAgQIECAAAECBAgQIECgWEB4UQyuOgIECBAgQIAAAQIECBAgQCAnILzIeSlNgAABAgQIECBAgAABAgQIFAsIL4rBVUeAAAECBAgQIECAAAECBAjkBIQXOS+lCRAgQIAAAQIECBAgQIAAgWIB4UUxuOoIECBAgAABAgQIECBAgACBnIDwIuelNAECBAgQIECAAAECBAgQIFAsILwoBlcdAQIECBAgQIAAAQIECBAgkBMQXuS8lCZAgAABAgQIECBAgAABAgSKBYQXxeCqI0CAAAECBAgQIECAAAECBHICwoucl9IECBAgQIAAAQIECBAgQIBAsYDwohhcdQQIECBAgAABAgQIECBAgEBOQHiR81KaAAECBAgQIECAAAECBAgQKBYQXhSDq44AAQIECBAgQIAAAQIECBDICQgvcl5KEyBAgAABAgQIECBAgAABAsUCwoticNURIECAAAECBAgQIECAAAECOQHhRc5LaQIECBAgQIAAAQIECBAgQKBYQHhRDK46AgQIECBAgAABAgQIECBAICcgvMh5KU2AAAECBAgQIECAAAECBAgUCwgvisFVR4AAAQIECBAgQIAAAQIECOQEhBc5L6UJECBAgAABAgQIECBAgACBYgHhRTG46ggQIECAAAECBAgQIECAAIGcgPAi56U0AQIECBAgQIAAAQIECBAgUCwgvCgGVx0BAgQIECBAgAABAgQIECCQExBe5LyUJkCAAAECBAgQIECAAAECBIoFhBfF4KojQIAAAQIECBAgQIAAAQIEcgLCi5yX0gQIECBAgAABAgQIECBAgECxgPCiGFx1BAgQIECAAAECBAgQIECAQE5AeJHzUpoAAQIECBAgQIAAAQIECBAoFhBeFIOrjgABAgQIECBAgAABAgQIEMgJCC9yXkoTIECAAAECBAgQIECAAAECxQLCi2Jw1REgQIAAAQIECBAgQIAAAQI5AeFFzktpAgQIEL09B4gAACAASURBVCBAgAABAgQIECBAoFhAeFEMrjoCBAgQIECAAAECBAgQIEAgJyC8yHkpTYAAAQIECBAgQIAAAQIECBQLCC+KwVVHgAABAgQIECBAgAABAgQI5ASEFzkvpQkQIECAAAECBAgQIECAAIFiAeFFMbjqCBAgQIAAAQIECBAgQIAAgZyA8CLnpTQBAgQIECBAgAABAgQIECBQLCC8KAZXHQECBAgQIECAAAECBAgQIJATEF7kvJQmQIAAAQIECBAgQIAAAQIEigWEF8XgqiNAgAABAgQIECBAgAABAgRyAsKLnJfSBAgQIECAAAECBAgQIECAQLGA8KIYXHUECBAgQIAAAQIECBAgQIBATkB4kfNSmgABAgQIECBAgAABAgQIECgWEF4Ug6uOAAECBAgQIECAAAECBAgQyAkIL3JeShMgQIAAAQIECBAgQIAAAQLFAsKLYnDVESBAgAABAgQIECBAgAABAjkB4UXOS2kCBAgQIECAAAECBAgQIECgWEB4UQyuOgIECBAgQIAAAQIECBAgQCAnILzIeSlNgAABAgQIECBAgAABAgQIFAsIL4rBVUeAAAECBAgQIECAAAECBAjkBIQXOS+lCRAgQIAAAQIECBAgQIAAgWIB4UUxuOoIECBAgAABAgQIECBAgACBnIDwIuelNAECBAgQIECAAAECBAgQIFAsILwoBlcdAQIECBAgQIAAAQIECBAgkBMQXuS8lCZAgAABAgQIECBAgAABAgSKBYQXxeCqI0CAAAECBAgQIECAAAECBHICwoucl9IECBAgQIAAAQIECBAgQIBAsYDwohhcdQQIECBAgAABAgQIECBAgEBOQHiR81KaAAECBAgQIECAAAECBAgQKBYQXhSDq44AAQIECBAgQIAAAQIECBDICQgvcl5KEyBAgAABAgQIECBAgAABAsUCwoticNURIECAAAECBAgQIECAAAECOQHhRc5LaQIECBAgQIAAAQIECBAgQKBYQHhRDK46AgQIECBAgAABAgQIECBAICcgvMh5KU2AAAECBAgQIECAAAECBAgUCwgvisFVR4AAAQIECBAgQIAAAQIECOQEhBc5L6UJECBAgAABAgQIECBAgACBYgHhRTG46ggQIECAAAECBAgQIECAAIGcgPAi56U0AQIECBAgQIAAAQIECBAgUCwgvCgGVx0BAgQIECBAgAABAgQIECCQExBe5LyUJkCAAAECBAgQIECAAAECBIoFhBfF4KojQIAAAQIECBAgQIAAAQIEcgLCi5yX0gQIECBAgAABAgQIECBAgECxgPCiGFx1BAgQIECAAAECBAgQIECAQE5AeJHzUpoAAQIECBAgQIAAAQIECBAoFhBeFIOrjgABAgQIECBAgAABAgQIEMgJCC9yXkoTIECAAAECBAgQIECAAAECxQLCi2Jw1REgQIAAAQIECBAgQIAAAQI5AeFFzktpAgQIECBAgAABAgQIECBAoFhAeFEMrjoCBAgQIECAAAECBAgQIEAgJyC8yHkpTYAAAQIECBAgQIAAAQIECBQLCC+KwVVHgAABAgQIECBAgAABAgQI5ASEFzkvpQkQIECAAAECBAgQIECAAIFiAeFFMbjqCBAgQIAAAQIECBAgQIAAgZyA8CLnpTQBAgQIECBAgAABAgQIECBQLCC8KAZXHQECBAgQIECAAAECBAgQIJATEF7kvJQmQIAAAQIECBAgQIAAAQIEigWEF8XgqiNAgAABAgQIECBAgAABAgRyAsKLnJfSBAgQIECAAAECBAgQIECAQLGA8KIYXHUECBAgQIAAAQIECBAgQIBATkB4kfNSmgABAgQIECBAgAABAgQIECgWEF4Ug6uOAAECBAgQIECAAAECBAgQyAkIL3JeShMgQIAAAQIECBAgQIAAAQLFAsKLYnDVESBAgAABAgQIECBAgAABAjkB4UXOS2kCBAgQIECAAAECBAgQIECgWEB4UQyuOgIECBAgQIAAAQIECBAgQCAnILzIeSlNgAABAgQIECBAgAABAgQIFAsIL4rBVUeAAAECBAgQIECAAAECBAjkBIQXOS+lCRAgQIAAAQIECBAgQIAAgWIB4UUxuOoIECBAgAABAgQIECBAgACBnIDwIuelNAECBAgQIECAAAECBAgQIFAsILwoBlcdAQIECBAgQIAAAQIECBAgkBMQXuS8lCZAgAABAgQIECBAgAABAgSKBYQXxeCqI0CAAAECBAgQIECAAAECBHICwoucl9IECBAgQIAAAQIECBAgQIBAsYDwohhcdQQIECBAgAABAgQIECBAgEBOQHiR81KaAAECBAgQIECAAAECBAgQKBYQXhSDq44AAQIECBAgQIAAAQIECBDICQgvcl5KEyBAgAABAgQIECBAgAABAsUCwoticNURIECAAAECBAgQIECAAAECOQHhRc5LaQIECBAgQIAAAQIECBAgQKBYQHhRDK46AgQIECBAgAABAgQIECBAICcgvMh5KU2AAAECBAgQIECAAAECBAgUCwgvisFVR4AAAQIECBAgQIAAAQIECOQEhBc5L6UJECBAgAABAgQIECBAgACBYgHhRTG46ggQIECAAAECBAgQIECAAIGcgPAi56U0AQIECBAgQIAAAQIECBAgUCwgvCgGVx0BAgQIECBAgAABAgQIECCQExBe5LyUJkCAAAECBAgQIECAAAECBIoFhBfF4KojQIAAAQIECBAgQIAAAQIEcgLCi5yX0gQIECBAgAABAgQIECBAgECxgPCiGFx1BAgQIECAAAECBAgQIECAQE5AeJHzUpoAAQIECBAgQIAAAQIECBAoFhBeFIOrjgABAgQIECBAgAABAgQIEMgJCC9yXkoTIECAAAECBAgQIECAAAECxQLCi2Jw1REgQIAAAQIECBAgQIAAAQI5AeFFzktpAgQIECBAgAABAgQIECBAoFhAeFEMrjoCBAgQIECAAAECBAgQIEAgJyC8yHkpTYAAAQIECBAgQIAAAQIECBQLCC+KwVVHgAABAgQIECBAgAABAgQI5ASEFzkvpQkQIECAAAECBAgQIECAAIFiAeFFMbjqCBAgQIAAAQIECBAgQIAAgZyA8CLnpTQBAgQIECBAgAABAgQIECBQLCC8KAZXHQECBAgQIECAAAECBAgQIJATEF7kvJQmQIAAAQIECBAgQIAAAQIEigWEF8XgqiNAgAABAgQIECBAgAABAgRyAsKLnJfSBAgQIECAAAECBAgQIECAQLGA8KIYXHUECBAgQIAAAQIECBAgQIBATkB4kfNSmgABAgQIECBAgAABAgQIECgWEF4Ug6uOAAECBAgQIECAAAECBAgQyAkIL3JeShMgQIAAAQIECBAgQIAAAQLFAsKLYnDVESBAgAABAgQIECBAgAABAjkB4UXOS2kCBAgQIECAAAECBAgQIECgWEB4UQyuOgIECBAgQIAAAQIECBAgQCAnILzIeSlNgAABAgQIECBAgAABAgQIFAsIL4rBVUeAAAECBAgQIECAAAECBAjkBIQXOS+lCRAgQIAAAQIECBAgQIAAgWIB4UUxuOoIECBAgAABAgQIECBAgACBnIDwIuelNAECBAgQIECAAAECBAgQIFAsILwoBlcdAQIECBAgQIAAAQIECBAgkBMQXuS8lCZAgAABAgQIECBAgAABAgSKBYQXxeCqI0CAAAECBAgQIECAAAECBHICwoucl9IECBAgQIAAAQIECBAgQIBAsYDwohhcdQQIECBAgAABAgQIECBAgEBOQHiR81KaAAECBAgQIECAAAECBAgQKBYQXhSDq44AAQIECBAgQIAAAQIECBDICQgvcl5KEyBAgAABAgQIECBAgAABAsUCwoticNURIECAAAECBAgQIECAAAECOQHhRc5LaQIECBAgQIAAAQIECBAgQKBYQHhRDK46AgQIECBAgAABAgQIECBAICcgvMh5KU2AAAECBAgQIECAAAECBAgUCwgvisFVR4AAAQIECBAgQIAAAQIECOQEhBc5L6UJECBAgAABAgQIECBAgACBYgHhRTG46ggQIECAAAECBAgQIECAAIGcgPAi56U0AQIECBAgQIAAAQIECBAgUCwgvCgGVx0BAgQIECBAgAABAgQIECCQExBe5LyUJkCAAAECBAgQIECAAAECBIoFhBfF4KojQIAAAQIECBAgQIAAAQIEcgLCi5yX0gQIECBAgAABAgQIECBAgECxgPCiGFx1BAgQIECAAAECBAgQIECAQE5AeJHzUpoAAQIECBAgQIAAAQIECBAoFhBeFIOrjgABAgQIECBAgAABAgQIEMgJCC9yXkoTIECAAAECBAgQIECAAAECxQLCi2Jw1REgQIAAAQIECBAgQIAAAQI5AeFFzktpAgQIECBAgAABAgQIECBAoFhAeFEMrjoCBAgQIECAAAECBAgQIEAgJyC8yHkpTYAAAQIECBAgQIAAAQIECBQLCC+KwVVHgAABAgQIECBAgAABAgQI5ASEFzkvpQkQIECAAAECBAgQIECAAIFiAeFFMbjqCBAgQIAAAQIECBAgQIAAgZyA8CLnpTQBAgQIECBAgAABAgQIECBQLCC8KAZXHQECBAgQIECAAAECBAgQIJATEF7kvJQmQIAAAQIECBAgQIAAAQIEigWEF8XgqiNAgAABAgQIECBAgAABAgRyAsKLnJfSBAgQIECAAAECBAgQIECAQLGA8KIYXHUECBAgQIAAAQIECBAgQIBATkB4kfNSmgABAgQIECBAgAABAgQIECgWEF4Ug6uOAAECBAgQIECAAAECBAgQyAkIL3JeShMgQIAAAQIECBAgQIAAAQLFAsKLYnDVESBAgAABAgQIECBAgAABAjkB4UXOS2kCBAgQIECAAAECBAgQIECgWEB4UQyuOgIECBAgQIAAAQIECBAgQCAnILzIeSlNgAABAgQIECBAgAABAgQIFAsIL4rBVUeAAAECBAgQIECAAAECBAjkBIQXOS+lCRAgQIAAAQIECBAgQIAAgWIB4UUxuOoIECBAgAABAgQIECBAgACBnIDwIuelNAECBAgQIECAAAECBAgQIFAsILwoBlcdAQIECBAgQIAAAQIECBAgkBMQXuS8lCZAgAABAgQIECBAgAABAgSKBYQXxeCqI0CAAAECBAgQIECAAAECBHICwoucl9IECBAgQIAAAQIECBAgQIBAsYDwohhcdQQIECBAgAABAgQIECBAgEBOQHiR81KaAAECBAgQIECAAAECBAgQKBYQXhSDq44AAQIECBAgQIAAAQIECBDICQgvcl5KEyBAgAABAgQIECBAgAABAsUCwoticNURIECAAAECBAgQIECAAAECOQHhRc5LaQIECBAgQIAAAQIECBAgQKBYQHhRDK46AgQIECBAgAABAgQIECBAICcgvMh5KU2AAAECBAgQIECAAAECBAgUCwgvisFVR4AAAQIECBAgQIAAAQIECOQEhBc5L6UJECBAgAABAgQIECBAgACBYgHhRTG46ggQIECAAAECBAgQIECAAIGcgPAi56U0AQIECBAgQIAAAQIECBAgUCwgvCgGVx0BAgQIECBAgAABAgQIECCQExBe5LyUJkCAAAECBAgQIECAAAECBIoFhBfF4KojQIAAAQIECBAgQIAAAQIEcgLCi5yX0gQIECBAgAABAgQIECBAgECxgPCiGFx1BAgQIECAAAECBAgQIECAQE5AeJHzUpoAAQIECBAgQIAAAQIECBAoFhBeFIOrjgABAgQIECBAgAABAgQIEMgJCC9yXkoTIECAAAECBAgQIECAAAECxQLCi2Jw1REgQIAAAQIECBAgQIAAAQI5AeFFzktpAgQIECBAgAABAgQIECBAoFhAeFEMrjoCBAgQIECAAAECBAgQIEAgJyC8yHkpTYAAAQIECBAgQIAAAQIECBQLCC+KwVVHgAABAgQIECBAgAABAgQI5ASEFzkvpQkQIECAAAECBAgQIECAAIFiAeFFMbjqCBAgQIAAAQIECBAgQIAAgZyA8CLnpTQBAgQIECBAgAABAgQIECBQLCC8KAZXHQECBAgQIECAAAECBAgQIJATEF7kvJQmQIAAAQIECBAgQIAAAQIEigWEF8XgqiNAgAABAgQIECBAgAABAgRyAsKLnJfSBAgQIECAAAECBAgQIECAQLGA8KIYXHUECBAgQIAAAQIECBAgQIBATkB4kfNSmgABAgQIECBAgAABAgQIECgWEF4Ug6uOAAECBAgQIECAAAECBAgQyAkIL3JeShMgQIAAAQIECBAgQIAAAQLFAsKLYnDVESBAgAABAgQIECBAgAABAjkB4UXOS2kCBAgQIECAAAECBAgQIECgWEB4UQyuOgIECBAgQIAAAQIECBAgQCAnILzIeSlNgAABAgQIECBAgAABAgQIFAsIL4rBVUeAAAECBAgQIECAAAECBAjkBIQXOS+lCRAgQIAAAQIECBAgQIAAgWIB4UUxuOoIECBAgAABAgQIECBAgACBnIDwIuelNAECBAgQIECAAAECBAgQIFAsILwoBlcdAQIECBAgQIAAAQIECBAgkBMQXuS8lCZAgAABAgQIECBAgAABAgSKBYQXxeCqI0CAAAECBAgQIECAAAECBHICwoucl9IECBAgQIAAAQIECBAgQIBAsYDwohhcdQQIECBAgAABAgQIECBAgEBOQHiR81KaAAECBAgQIECAAAECBAgQKBYQXhSDq44AAQIECBAgQIAAAQIECBDICQgvcl5KEyBAgAABAgQIECBAgAABAsUCwoticNURIECAAAECBAgQIECAAAECOQHhRc5LaQIECBAgQIAAAQIECBAgQKBYQHhRDK46AgQIECBAgAABAgQIECBAICcgvMh5KU2AAAECBAgQIECAAAECBAgUCwgvisFVR4AAAQIECBAgQIAAAQIECOQEhBc5L6UJECBAgAABAgQIECBAgACBYgHhRTG46ggQIECAAAECBAgQIECAAIGcgPAi56U0AQIECBAgQIAAAQIECBAgUCwgvCgGVx0BAgQIECBAgAABAgQIECCQExBe5LyUJkCAAAECBAgQIECAAAECBIoFhBfF4KojQIAAAQIECBAgQIAAAQIEcgLCi5yX0gQIECBAgAABAgQIECBAgECxgPCiGFx1BAgQIECAAAECBAgQIECAQE5AeJHzUpoAAQIECBAgQIAAAQIECBAoFhBeFIOrjgABAgQIECBAgAABAgQIEMgJCC9yXkoTIECAAAECBAgQIECAAAECxQLCi2Jw1REgQIAAAQIECBAgQIAAAQI5AeFFzktpAgQIECBAgAABAgQIECBAoFhAeFEMrjoCBAgQIECAAAECBAgQIEAgJyC8yHkpTYAAAQIECBAgQIAAAQIECBQLCC+KwVVHgAABAgQIECBAgAABAgQI5ASEFzkvpQkQIECAAAECBAgQIECAAIFiAeFFMbjqCBAgQIAAAQIECBAgQIAAgZyA8CLnpTQBAgQIECBAgAABAgQIECBQLCC8KAZXHQECBAgQIECAAAECBAgQIJATEF7kvJQmQIAAAQIECBAgQIAAAQIEigWEF8XgqiNAgAABAgQIECBAgAABAgRyAsKLnJfSBAgQIECAAAECBAgQIECAQLGA8KIYXHUECBAgQIAAAQIECBAgQIBATkB4kfNSmgABAgQIECBAgAABAgQIECgWEF4Ug6uOAAECBAgQIECAAAECBAgQyAkIL3JeShMgQIAAAQIECBAgQIAAAQLFAsKLYnDVESBAgAABAgQIECBAgAABAjkB4UXOS2kCBAgQIECAAAECBAgQIECgWEB4UQyuOgIECBAgQIAAAQIECBAgQCAnILzIeSlNgAABAgQIECBAgAABAgQIFAsIL4rBVUeAAAECBAgQIECAAAECBAjkBIQXOS+lCRAgQIAAAQIECBAgQIAAgWIB4UUxuOoIECBAgAABAgQIECBAgACBnIDwIuelNAECBAgQIECAAAECBAgQIFAsILwoBlcdAQIECBAgQIAAAQIECBAgkBMQXuS8lCZAgAABAgQIECBAgAABAgSKBYQXxeCqI0CAAAECBAgQIECAAAECBHICwoucl9IECBAgQIAAAQIECBAgQIBAsYDwohhcdQQIECBAgAABAgQIECBAgEBOQHiR81KaAAECBAgQIECAAAECBAgQKBYQXhSDq44AAQIECBAgQIAAAQIECBDICQgvcl5KEyBAgAABAgQIECBAgAABAsUCwoticNURIECAAAECBAgQIECAAAECOQHhRc5LaQIECBAgQIAAAQIECBAgQKBYQHhRDK46AgQIECBAgAABAgQIECBAICcgvMh5KU2AAAECBAgQIECAAAECBAgUCwgvisFVR4AAAQIECBAgQIAAAQIECOQEhBc5L6UJECBAgAABAgQIECBAgACBYgHhRTG46ggQIECAAAECBAgQIECAAIGcgPAi56U0AQIECBAgQIAAAQIECBAgUCwgvCgGVx0BAgQIECBAgAABAgQIECCQExBe5LyUJkCAAAECBAgQIECAAAECBIoFhBfF4KojQIAAAQIECBAgQIAAAQIEcgLCi5yX0gQIECBAgAABAgQIECBAgECxgPCiGFx1BAgQIECAAAECBAgQIECAQE5AeJHzUpoAAQIECBAgQIAAAQIECBAoFhBeFIOrjgABAgQIECBAgAABAgQIEMgJCC9yXkoTIECAAAECBAgQIECAAAECxQLCi2Jw1REgQIAAAQIECBAgQIAAAQI5AeFFzktpAgQIECBAgAABAgQIECBAoFhAeFEMrjoCBAgQIECAAAECBAgQIEAgJyC8yHkpTYAAAQIECBAgQIAAAQIECBQLCC+KwVVHgAABAgQIECBAgAABAgQI5ASEFzkvpQkQIECAAAECBAgQIECAAIFiAeFFMbjqCBAgQIAAAQIECBAgQIAAgZyA8CLnpTQBAgQIECBAgAABAgQIECBQLCC8KAZXHQECBAgQIECAAAECBAgQIJATEF7kvJQmQIAAAQIECBAgQIAAAQIEigWEF8XgqiNAgAABAgQIECBAgAABAgRyAsKLnJfSBAgQIECAAAECBAgQIECAQLGA8KIYXHUECBAgQIAAAQIECBAgQIBATkB4kfNSmgABAgQIECBAgAABAgQIECgWEF4Ug6uOAAECBAgQIECAAAECBAgQyAkIL3JeShMgQIAAAQIECBAgQIAAAQLFAsKLYnDVESBAgAABAgQIECBAgAABAjkB4UXOS2kCBAgQIECAAAECBAgQIECgWEB4UQyuOgIECBAgQIAAAQIECBAgQCAnILzIeSlNgAABAgQIECBAgAABAgQIFAsIL4rBVUeAAAECBAgQIECAAAECBAjkBIQXOS+lCRAgQIAAAQIECBAgQIAAgWIB4UUxuOoIECBAgAABAgQIECBAgACBnIDwIuelNAECBAgQIECAAAECBAgQIFAsILwoBlcdAQIECBAgQIAAAQIECBAgkBMQXuS8lCZAgAABAgQIECBAgAABAgSKBYQXxeCqI0CAAAECBAgQIECAAAECBHICwoucl9IECBAgQIAAAQIECBAgQIBAsYDwohhcdQQIECBAgAABAgQIECBAgEBOQHiR81KaAAECBAgQIECAAAECBAgQKBYQXhSDq44AAQIECBAgQIAAAQIECBDICQgvcl5KEyBAgAABAgQIECBAgAABAsUCwoticNURIECAAAECBAgQIECAAAECOQHhRc5LaQIECBAgQIAAAQIECBAgQKBYQHhRDK46AgQIECBAgAABAgQIECBAICcgvMh5KU2AAAECBAgQIECAAAECBAgUCwgvisFVR4AAAQIECBAgQIAAAQIECOQEhBc5L6UJECBAgAABAgQIECBAgACBYgHhRTG46ggQIECAAAECBAgQIECAAIGcgPAi56U0AQIECBAgQIAAAQIECBAgUCwgvCgGVx0BAgQIECBAgAABAgQIECCQExBe5LyUJkCAAAECBAgQIECAAAECBIoFhBfF4KojQIAAAQIECBAgQIAAAQIEcgLCi5yX0gQIECBAgAABAgQIECBAgECxgPCiGFx1BAgQIECAAAECBAgQIECAQE5AeJHzUpoAAQIECBAgQIAAAQIECBAoFhBeFIOrjgABAgQIECBAgAABAgQIEMgJCC9yXkoTIECAAAECBAgQIECAAAECxQLCi2Jw1REgQIAAAQIECBAgQIAAAQI5AeFFzktpAgQIECBAgAABAgQIECBAoFhAeFEMrjoCBAgQIECAAAECBAgQIEAgJyC8yHkpTYAAAQIECBAgQIAAAQIECBQLCC+KwVVHgAABAgQIECBAgAABAgQI5ASEFzkvpQkQIECAAAECBAgQIECAAIFiAeFFMbjqCBAgQIAAAQIECBAgQIAAgZyA8CLnpTQBAgQIECBAgAABAgQIECBQLCC8KAZXHQECBAgQIECAAAECBAgQIJATEF7kvJQmQIAAAQIECBAgQIAAAQIEigWEF8XgqiNAgAABAgQIECBAgAABAgRyAsKLnJfSBAgQIECAAAECBAgQIECAQLGA8KIYXHUECBAgQIAAAQIECBAgQIBATkB4kfNSmgABAgQIECBAgAABAgQIECgWEF4Ug6uOAAECBAgQIECAAAECBAgQyAkIL3JeShMgQIAAAQIECBAgQIAAAQLFAsKLYnDVESBAgAABAgQIECBAgAABAjkB4UXOS2kCBAgQIECAAAECBAgQIECgWEB4UQyuOgIECBAgQIAAAQIECBAgQCAnILzIeSlNgAABAgQIECBAgAABAgQIFAsIL4rBVUeAAAECBAgQIECAAAECBAjkBIQXOS+lCRAgQIAAAQIECBAgQIAAgWIB4UUxuOoIECBAgAABAgQIECBAgACBnIDwIuelNAECBAgQIECAAAECBAgQIFAsILwoBlcdAQIECBAgxH6KKwAAIABJREFUQIAAAQIECBAgkBMQXuS8lCZAgAABAgQIECBAgAABAgSKBYQXxeCqI0CAAAECBAgQIECAAAECBHICwoucl9IECBAgQIAAAQIECBAgQIBAsYDwohhcdQQIECBAgAABAgQIECBAgEBOQHiR81KaAAECBAgQIECAAAECBAgQKBYQXhSDq44AAQIECBAgQIAAAQIECBDICQgvcl5KEyBAgAABAgQIECBAgAABAsUCwoticNURIECAAAECBAgQIECAAAECOQHhRc5LaQIECBAgQIAAAQIECBAgQKBYQHhRDK46AgQIECBAgAABAgQIECBAICcgvMh5KU2AAAECBAgQIECAAAECBAgUCwgvisFVR4AAAQIECBAgQIAAAQIECOQEhBc5L6UJECBAgAABAgQIECBAgACBYgHhRTG46ggQIECAAAECBAgQIECAAIGcgPAi56U0AQIECBAgQIAAAQIECBAgUCwgvCgGVx0BAgQIECBAgAABAgQIECCQExBe5LyUJkCAAAECBAgQIECAAAECBIoFhBfF4KojQIAAAQIECBAgQIAAAQIEcgLCi5yX0gQIECBAgAABAgQIECBAgECxgPCiGFx1BAgQIECAAAECBAgQIECAQE5AeJHzUpoAAQIECBAgQIAAAQIECBAoFhBeFIOrjgABAgQIECBAgAABAgQIEMgJCC9yXkoTIECAAAECBAgQIECAAAECxQLCi2Jw1REgQIAAAQIECBAgQIAAAQI5AeFFzktpAgQIECBAgAABAgQIECBAoFhAeFEMrjoCBAgQIECAAAECBAgQIEAgJyC8yHkpTYAAAQIECBAgQIAAAQIECBQLCC+KwVVHgAABAgQIECBAgAABAgQI5ASEFzkvpQkQIECAAAECBAgQIECAAIFiAeFFMbjqCBAgQIAAAQIECBAgQIAAgZyA8CLnpTQBAgQIECBAgAABAgQIECBQLCC8KAZXHQECBAgQIECAAAECBAgQIJATEF7kvJQmQIAAAQIECBAgQIAAAQIEigWEF8XgqiNAgAABAgQIECBAgAABAgRyAsKLnJfSBAgQIECAAAECBAgQIECAQLGA8KIYXHUECBAgQIAAAQIECBAgQIBATkB4kfNSmgABAgQIECBAgAABAgQIECgWEF4Ug6uOAAECBAgQIECAAAECBAgQyAkIL3JeShMgQIAAAQIECBAgQIAAAQLFAsKLYnDVESBAgAABAgQIECBAgAABAjkB4UXOS2kCBAgQIECAAAECBAgQIECgWEB4UQyuOgIECBAgQIAAAQIECBAgQCAnILzIeSlNgAABAgQIECBAgAABAgQIFAsIL4rBVUeAAAECBAgQIECAAAECBAjkBIQXOS+lCRAgQIAAAQIECBAgQIAAgWIB4UUxuOoIECBAgAABAgQIECBAgACBnIDwIuelNAECBAgQIECAAAECBAgQIFAsILwoBlcdAQIECBAgQIAAAQIECBAgkBMQXuS8lCZAgAABAgQIECBAgAABAgSKBYQXxeCqI0CAAAECBAgQIECAAAECBHICwoucl9IECBAgQIAAAQIECBAgQIBAsYDwohhcdQQIECBAgAABAgQIECBAgEBOQHiR81KaAAECBAgQIECAAAECBAgQKBYQXhSDq44AAQIECBAgQIAAAQIECBDICQgvcl5KEyBAgAABAgQIECBAgAABAsUCwoticNURIECAAAECBAgQIECAAAECOQHhRc5LaQIECBAgQIAAAQIECBAgQKBYQHhRDK46AgQIECBAgAABAgQIECBAICcgvMh5KU2AAAECBAgQIECAAAECBAgUCwgvisFVR4AAAQIECBAgQIAAAQIECOQEhBc5L6UJECBAgAABAgQIECBAgACBYgHhRTG46ggQIECAAAECBAgQIECAAIGcgPAi56U0AQIECBAgQIAAAQIECBAgUCwgvCgGVx0BAgQIECBAgAABAgQIECCQExBe5LyUJkCAAAECBAgQIECAAAECBIoFhBfF4KojQIAAAQIECBAgQIAAAQIEcgLCi5yX0gQIECBAgAABAgQIECBAgECxgPCiGFx1BAgQIECAAAECBAgQIECAQE5AeJHzUpoAAQIECBAgQIAAAQIECBAoFhBeFIOrjgABAgQIECBAgAABAgQIEMgJCC9yXkoTIECAAAECBAgQIECAAAECxQLCi2Jw1REgQIAAAQIECBAgQIAAAQI5AeFFzktpAgQIECBAgAABAgQIECBAoFhAeFEMrjoCBAgQIECAAAECBAgQIEAgJyC8yHkpTYAAAQIECBAgQIAAAQIECBQLCC+KwVVHgAABAgQIECBAgAABAgQI5ASEFzkvpQkQIECAAAECBAgQIECAAIFiAeFFMbjqCBAgQIAAAQIECBAgQIAAgZyA8CLnpTQBAgQIECBAgAABAgQIECBQLCC8KAZXHQECBAgQIECAAAECBAgQIJATEF7kvJQmQIAAAQIECBAgQIAAAQIEigWEF8XgqiNAgAABAgQIECBAgAABAgRyAsKLnJfSBAgQIECAAAECBAgQIECAQLGA8KIYXHUECBAgQIAAAQIECBAgQIBATkB4kfNSmgABAgQIECBAgAABAgQIECgWEF4Ug6uOAAECBAgQIECAAAECBAgQyAkIL3JeShMgQIAAAQIECBAgQIAAAQLFAsKLYnDVESBAgAABAgQIECBAgAABAjkB4UXOS2kCBAgQIECAAAECBAgQIECgWEB4UQyuOgIECBAgQIAAAQIECBAgQCAnILzIeSlNgAABAgQIECBAgAABAgQIFAsIL4rBVUeAAAECBAgQIECAAAECBAjkBIQXOS+lCRAgQIAAAQIECBAgQIAAgWIB4UUxuOoIECBAgAABAgQIECBAgACBnIDwIuelNAECBAgQIECAAAECBAgQIFAsILwoBlcdAQIECBAgQIAAAQIECBAgkBMQXuS8lCZAgAABAgQIECBAgAABAgSKBYQXxeCqI0CAAAECBAgQIECAAAECBHICwoucl9IECBAgQIAAAQL/r707AZbmKOgAPopcUQRiDCDggRADciWICnITIWIByhEIIdyoENBgwiUYhABCYuQ+lMgNIQqUGJEClASIyKHhPoSgkSsaNdxYgqnP+k9Vv5pvs/ve9tt9vW/2/bYqleT7eqd7fj27M/3fnh4CBAgQIECgsYDwojG46ggQIECAAAECBAgQIECAAIE6AeFFnZfSBAgQIECAAAECBAgQIECAQGMB4UVjcNURIECAAAECBAgQIECAAAECdQLCizovpQkQIECAAAECBAgQIECAAIHGAsKLxuCqI0CAAAECBAgQIECAAAECBOoEhBd1XkoTIECAAAECBAgQIECAAAECjQWEF43BVUeAAAECBAgQIECAAAECBAjUCQgv6ryUJkCAAAECBAgQIECAAAECBBoLCC8ag6uOAAECBAgQIECAAAECBAgQqBMQXtR5KU2AAAECBAgQIECAAAECBAg0FhBeNAZXHQECBAgQIECAAAECBAgQIFAnILyo81KaAAECBAgQIECAAAECBAgQaCwgvGgMrjoCBAgQIECAAAECBAgQIECgTkB4UeelNAECBAgQIECAAAECBAgQINBYQHjRGFx1BAgQIECAAAECBAgQIECAQJ2A8KLOS2kCBAgQIECAAAECBAgQIECgsYDwojG46ggQIECAAAECBAgQIECAAIE6AeFFnZfSBAgQIECAAAECBAgQIECAQGMB4UVjcNURIECAAAECBAgQIECAAAECdQLCizovpQkQIECAAAECBAgQIECAAIHGAsKLxuCqI0CAAAECBAgQIECAAAECBOoEhBd1XkoTIECAAAECBAgQIECAAAECjQWEF43BVUeAAAECBAgQIECAAAECBAjUCQgv6ryUJkCAAAECBAgQIECAAAECBBoLCC8ag6uOAAECBAgQIECAAAECBAgQqBMQXtR5KU2AAAECBAgQIECAAAECBAg0FhBeNAZXHQECBAgQIECAAAECBAgQIFAnILyo81KaAAECBAgQIECAAAECBAgQaCwgvGgMrjoCBAgQIECAAAECBAgQIECgTkB4UeelNAECBAgQIECAAAECBAgQINBYQHjRGFx1BAgQIECAAAECBAgQIECAQJ2A8KLOS2kCBAgQIECAAAECBAgQIECgsYDwojG46ggQIECAAAECBAgQIECAAIE6AeFFnZfSBAgQIECAAAECBAgQIECAQGMB4UVjcNURIECAAAECBAgQIECAAAECdQLCizovpQkQIECAAAECBAgQIECAAIHGAsKLxuCqI0CAAAECBAgQIECAAAECBOoEhBd1XkoTIECAAAECBAgQIECAAAECjQWEF43BVUeAAAECBAgQIECAAAECBAjUCQgv6ryUJkCAAAECBAgQIECAAAECBBoLCC8ag6uOAAECBAgQIECAAAECBAgQqBMQXtR5KU2AAAECBAgQIECAAAECBAg0FhBeNAZXHQECBAgQIECAAAECBAgQIFAnILyo81KaAAECBAgQIECAAAECBAgQaCwgvGgMrjoCBAgQIECAAAECBAgQIECgTkB4UeelNAECBAgQIECAAAECBAgQINBYQHjRGFx1BAgQIECAAAECBAgQIECAQJ2A8KLOS2kCBAgQIECAAAECBAgQIECgsYDwojG46ggQIECAAAECBAgQIECAAIE6AeFFnZfSBAgQIECAAAECBAgQIECAQGMB4UVjcNURIECAAAECBAgQIECAAAECdQLCizovpQkQIECAAAECBAgQIECAAIHGAsKLxuCqI0CAAAECBAgQIECAAAECBOoEhBd1XkoTIECAAAECBAgQIECAAAECjQWEF43BVUeAAAECBAgQIECAAAECBAjUCQgv6ryUJkCAAAECBAgQIECAAAECBBoLCC8ag6uOAAECBAgQIECAAAECBAgQqBMQXtR5KU2AAAECBAgQIECAAAECBAg0FhBeNAZXHQECBAgQIECAAAECBAgQIFAnILyo81KaAAECBAgQIECAAAECBAgQaCwgvGgMrjoCBAgQIECAAAECBAgQIECgTkB4UeelNAECBAgQIECAAAECBAgQINBYQHjRGFx1BAgQIECAAAECBAgQIECAQJ2A8KLOS2kCBAgQIECAAAECBAgQIECgsYDwojG46ggQIECAAAECBAgQIECAAIE6AeFFnZfSBAgQIECAAAECBAgQIECAQGMB4UVjcNURIECAAAECBAgQIECAAAECdQLCizovpQkQIECAAAECBAgQIECAAIHGAsKLxuCqI0CAAAECBAgQIECAAAECBOoEhBd1XkoTIECAAAECBAgQIECAAAECjQWEF43BVUeAAAECBAgQIECAAAECBAjUCQgv6ryUJkCAAAECBAgQIECAAAECBBoLCC8ag6uOAAECBAgQIECAAAECBAgQqBMQXtR5KU2AAAECBAgQIECAAAECBAg0FhBeNAZXHQECBAgQIECAAAECBAgQIFAnILyo81KaAAECBAgQIECAAAECBAgQaCwgvGgMrjoCBAgQIECAAAECBAgQIECgTkB4UeelNAECBAgQIECAAAECBAgQINBYQHjRGFx1BAgQIECAAAECBAgQIECAQJ2A8KLOS2kCBAgQIECAAAECBAgQIECgsYDwojG46ggQIECAAAECBAgQIECAAIE6AeFFnZfSBAgQIECAAAECBAgQIECAQGMB4UVjcNURIECAAAECBAgQIECAAAECdQLCizovpQkQIECAAAECBAgQIECAAIHGAsKLxuCqI0CAAAECBAgQIECAAAECBOoEhBd1XkoTIECAAAECBAgQIECAAAECjQWEF43BVUeAAAECBAgQIECAAAECBAjUCQgv6ryUJkCAAAECBAgQIECAAAECBBoLCC8ag6uOAAECBAgQIECAAAECBAgQqBMQXtR5KU2AAAECBAgQIECAAAECBAg0FhBeNAZXHQECBAgQIECAAAECBAgQIFAnILyo81KaAAECBAgQIECAAAECBAgQaCwgvGgMrjoCBAgQIECAAAECBAgQIECgTkB4UeelNAECBAgQIECAAAECBAgQINBYQHjRGFx1BAgQIECAAAECBAgQIECAQJ2A8KLOS2kCBAgQIECAAAECBAgQIECgsYDwojG46ggQIECAAAECBAgQIECAAIE6AeFFnZfSBAgQIECAAAECBAgQIECAQGMB4UVjcNURIECAAAECBAgQIECAAAECdQLCizovpQkQIECAAAECBAgQIECAAIHGAsKLxuCqI0CAAAECBAgQIECAAAECBOoEhBd1XkoTIECAAAECBAgQIECAAAECjQWEF43BVUeAAAECBAgQIECAAAECBAjUCQgv6ryUJkCAAAECBAgQIECAAAECBBoLCC8ag6uOAAECBAgQIECAAAECBAgQqBMQXtR5KU2AAAECBAgQIECAAAECBAg0FhBeNAZXHQECBAgQIECAAAECBAgQIFAnILyo81KaAAECBAgQIECAAAECBAgQaCwgvGgMrjoCBAgQIECAAAECBAgQIECgTkB4UeelNAECBAgQIECAAAECBAgQINBYQHjRGFx1BAgQIECAAAECBAgQIECAQJ2A8KLOS2kCBAgQIECAAAECBAgQIECgsYDwojG46ggQIECAAAECBAgQIECAAIE6AeFFnZfSBAgQIECAAAECBAgQIECAQGMB4UVjcNURIECAAAECBAgQIECAAAECdQLCizovpQkQIECAAAECBAgQIECAAIHGAsKLxuCqI0CAAAECBAgQIECAAAECBOoEhBd1XkoTIECAAAECBAgQIECAAAECjQWEF43BVUeAAAECBAgQIECAAAECBAjUCQgv6ryUJkCAAAECBAgQIECAAAECBBoLCC8ag6uOAAECBAgQIECAAAECBAgQqBMQXtR5KU2AAAECBAgQIECAAAECBAg0FhBeNAZXHQECBAgQIECAAAECBAgQIFAnILyo81KaAAECBAgQIECAAAECBAgQaCwgvGgMrjoCBAgQIECAAAECBAgQIECgTkB4UeelNAECBAgQIECAAAECBAgQINBYQHjRGFx1BAgQIECAAAECBAgQIECAQJ2A8KLOS2kCBAgQIECAAAECBAgQIECgsYDwojG46ggQIECAAAECBAgQIECAAIE6AeFFnZfSBAgQIECAAAECBAgQIECAQGMB4UVjcNURIECAAAECBAgQIECAAAECdQLCizovpQkQIECAAAECBAgQIECAAIHGAsKLxuCqI0CAAAECBAgQIECAAAECBOoEhBd1XkoTIECAAAECBAgQIECAAAECjQWEF43BVUeAAAECBAgQIECAAAECBAjUCQgv6ryUJkCAAAECBAgQIECAAAECBBoLCC8ag6uOAAECBAgQIECAAAECBAgQqBMQXtR5KU2AAAECBAgQIECAAAECBAg0FhBeNAZXHQECBAgQIECAAAECBAgQIFAnILyo81KaAAECBAgQIECAAAECBAgQaCwgvGgMrjoCBAgQIECAAAECBAgQIECgTkB4UeelNAECBAgQIECAAAECBAgQINBYQHjRGFx1BAgQIECAAAECBAgQIECAQJ2A8KLOS2kCBAgQIECAAAECBAgQIECgsYDwojG46ggQIECAAAECBAgQIECAAIE6AeFFnZfSBAgQIECAAAECBAgQIECAQGMB4UVjcNURIECAAAECBAgQIECAAAECdQLCizovpQkQIECAAAECBAgQIECAAIHGAsKLxuCqI0CAAAECBAgQIECAAAECBOoEhBd1XkoTIECAAAECBAgQIECAAAECjQWEF43BVUeAAAECBAgQIECAAAECBAjUCQgv6ryUJkCAAAECBAgQIECAAAECBBoLCC8ag6uOAAECBAgQIECAAAECBAgQqBMQXtR5KU2AAAECBAgQIECAAAECBAg0FhBeNAZXHQECBAgQIECAAAECBAgQIFAnILyo81KaAAECBAgQIECAAAECBAgQaCwgvGgMrjoCBAgQIECAAAECBAgQIECgTkB4UeelNAECBAgQIECAAAECBAgQINBYQHjRGFx1BAgQIECAAAECBAgQIECAQJ2A8KLOS2kCBAgQIECAAAECBAgQIECgsYDwojG46ggQIECAAAECBAgQIECAAIE6AeFFnZfSBAgQIECAAAECBAgQIECAQGMB4UVjcNURIECAAAECBAgQIECAAAECdQLCizovpQkQIECAAAECBAgQIECAAIHGAsKLxuCqI0CAAAECBAgQIECAAAECBOoEhBd1XkoTIECAAAECBAgQIECAAAECjQWEF43BVUeAAAECBAgQIECAAAECBAjUCQgv6ryUJkCAAAECBAgQIECAAAECBBoLCC8ag6uOAAECBAgQIECAAAECBAgQqBMQXtR5KU2AAAECBAgQIECAAAECBAg0FhBeNAZXHQECBAgQIECAAAECBAgQIFAnILyo81KaAAECBAgQIECAAAECBAgQaCwgvGgMrjoCBAgQIECAAAECBAgQIECgTkB4UeelNAECBAgQIECAAAECBAgQINBYQHjRGFx1BAgQIECAAAECBAgQIECAQJ2A8KLOS2kCBAgQIECAAAECBAgQIECgsYDwojG46ggQIECAAAECBAgQIECAAIE6AeFFnZfSBAgQIECAAAECBAgQIECAQGMB4UVjcNURIECAAAECBAgQIECAAAECdQLCizovpQkQIECAAAECBAgQIECAAIHGAsKLxuCqI0CAAAECBAgQIECAAAECBOoEhBd1XkoTIECAAAECBAgQIECAAAECjQWEF43BVUeAAAECBAgQIECAAAECBAjUCQgv6ryUJkCAAAECBAgQIECAAAECBBoLCC8ag6uOAAECBAgQIECAAAECBAgQqBMQXtR5KU2AAAECBAgQIECAAAECBAg0FhBeNAZXHQECBAgQIECAAAECBAgQIFAnILyo81KaAAECBAgQIECAAAECBAgQaCwgvGgMrjoCBAgQIECAAAECBAgQIECgTkB4UeelNAECBAgQIECAAAECBAgQINBYQHjRGFx1BAgQIECAAAECBAgQIECAQJ2A8KLOS2kCBAgQIECAAAECBAgQIECgsYDwojG46ggQIECAAAECBAgQIECAAIE6AeFFnZfSBAgQIECAAAECBAgQIECAQGMB4UVjcNURIECAAAECBAgQIECAAAECdQLCizovpQkQIECAAAECBAgQIECAAIHGAsKLxuCqI0CAAAECBAgQIECAAAECBOoEhBd1XkoTIECAAAECBAgQIECAAAECjQWEF43BVUeAAAECBAgQIECAAAECBAjUCQgv6ryUJkCAAAECBAgQIECAAAECBBoLCC8ag6uOAAECBAgQIECAAAECBAgQqBMQXtR5KU2AAAECBAgQIECAAAECBAg0FhBeNAZXHQECBAgQIECAAAECBAgQIFAnILyo81KaAAECBAgQIECAAAECBAgQaCwgvGgMrjoCBAgQIECAAAECBAgQIECgTkB4UeelNAECBAgQIECAAAECBAgQINBYQHjRGFx1BAgQIECAAAECBAgQIECAQJ2A8KLOS2kCBAgQIECAAAECBAgQIECgsYDwojG46ggQIECAAAECBAgQIECAAIE6AeFFnZfSBAgQIECAAAECBAgQIECAQGMB4UVjcNURIECAAAECBAgQIECAAAECdQLCizovpQkQIECAAAECBAgQIECAAIHGAsKLxuCqI0CAAAECBAgQIECAAAECBOoEhBd1XkoTIECAAAECBAgQIECAAAECjQWEF43BVUeAAAECBAgQIECAAAECBAjUCQgv6ryUJkCAAAECBAgQIECAAAECBBoLCC8ag6uOAAECBAgQIECAAAECBAgQqBMQXtR5KU2AAAECBAgQIECAAAECBAg0FhBeNAZXHQECBAgQIECAAAECBAgQIFAnILyo81KaAAECBAgQIECAAAECBAgQaCwgvGgMrjoCBAgQIECAAAECBAgQIECgTkB4UeelNAECBAgQIECAAAECBAgQINBYQHjRGFx1BAgQIECAAAECBAgQIECAQJ2A8KLOS2kCBAgQIECAAAECBAgQIECgsYDwojG46ggQIECAAAECBAgQIECAAIE6AeFFnZfSBAgQIECAAAECBAgQIECAQGMB4UVjcNURIECAAAECBAgQIECAAAECdQLCizovpQkQIECAAAECBAgQIECAAIHGAsKLxuCqI0CAAAECBAgQIECAAAECBOoEhBd1XkoTIECAAAECBAgQIECAAAECjQWEF43BVUeAAAECBAgQIECAAAECBAjUCQgv6ryUJkCAAAECBAgQIECAAAECBBoLCC8ag6uOAAECBAgQIECAAAECBAgQqBMQXtR5KU2AAAECBAgQIECAAAECBAg0FhBeNAZXHQECBAgQIECAAAECBAgQIFAnILyo81KaAAECBAgQIECAAAECBAgQaCwgvGgMrjoCBAgQIECAAAECBAgQIECgTkB4UeelNAECBAgQIECAAAECBAgQINBYQHjRGFx1BAgQIECAAAECBAgQIECAQJ2A8KLOS2kCBAgQIECAAAECBAgQIECgsYDwojG46ggQIECAAAECBAgQIECAAIE6AeFFnZfSBAgQIECAAAECBAgQIECAQGMB4UVjcNURIECAAAECBAgQIECAAAECdQLCizovpQkQIECAAAECBAgQIECAAIHGAsKLxuCqI0CAAAECBAgQIECAAAECBOoEhBd1XkoTIECAAAECBAgQIECAAAECjQWEF43BVUeAAAECBAgQIECAAAECBAjUCQgv6ryUJkCAAAECBAgQIECAAAECBBoLCC8ag6uOAAECBAgQIECAAAECBAgQqBMQXtR5KU2AAAECBAgQIECAAAECBAg0FhBeNAZXHQECBAgQIECAAAECBAgQIFAnILyo81KaAAECBAgQIECAAAECBAgQaCwgvGhJXObvAAAgAElEQVQMrjoCBAgQIECAAAECBAgQIECgTkB4UeelNAECBAgQIECAAAECBAgQINBYQHjRGFx1BAgQIECAAAECBAgQIECAQJ2A8KLOS2kCBAgQIECAAAECBAgQIECgsYDwojG46ggQIECAAAECBAgQIECAAIE6AeFFnZfSBAgQIECAAAECBAgQIECAQGMB4UVjcNURIECAAAECBAgQIECAAAECdQIb4UXd25QmQIAAAQIECBAgQIAAAQIECLQT+L6u6/bt27evXY1qIkBgaQJJIH1+l8ZpQwQIECBAgMAaC7huWuPOtWtrL+C2kbXvYju47gJOwuvew/aPAAECBAgQWJaA66ZlSdoOgfYCwov25moksFQBJ+GlctoYAQIECBAgsMYCrpvWuHPt2toLCC/Wvovt4LoLOAmvew/bPwIECBAgQGBZAq6bliVpOwTaCwgv2purkcBSBZyEl8ppYwQIECBAgMAaC7huWuPOtWtrLyC8WPsutoPrLuAkvO49bP8IECBAgACBZQm4blqWpO0QaC8gvGhvrkYCSxVwEl4qp40RIECAAAECayzgummNO9eurb2A8GLtu9gOrruAk/C697D9I0CAAAECBJYl4LppWZK2Q6C9gPCivbkaCSxVwEl4qZw2RoAAAQIECKyxgOumNe5cu7b2AnOFF1/84he7e97znt3Nbnaz7iUvecl+KKeeemr3vve9r3vlK1/ZXfnKV+7/7utf/3r3oAc9qPvLv/zLjbK/9Vu/td97yzY/9KEP7be9n/7pn+5e85rXdLe4xS1mbmv4hje96U3dPe5xj7XvKDtIYJbAvCfhRzziEd1LX/rSqZspn7sLL7ywe9azntXlc/WlL32pO/bYY7vPf/7zU9+Tz3TK5rOectM+h7M+59ng5GddDxMgQIAAAQIEdlpg1nVTxjR/8id/st84JG0p1zJPeMIT+mudlPuXf/mXS42JppX7i7/4i/6a6trXvvaldivbKX//wz/8w5caO5U3DMc6b37zm/sx2bTXr/3ar/XjsW984xt9mckxVt4zOR7baWvbJ7BsgarwIh+CybBgMrz4h3/4h34g88u//Mv7fagzcPqnf/qnjQ9wPuAPechDuqc97WkbQUV2Lh/Kxz3ucRtfHCUImTU4WjaI7REYm8C84cVwv/I5S0g4DB3L56+EF8MT7azP4Vafz1mf87EZ79b2DoPio446qnv5y1/e/eAP/uCWzf34xz/e/dmf/Vl3zjnndB/96Ef78je5yU26O97xjt2jHvWo7qd+6qe23EYK5Ps/39e5GPq93/u9jYulcp4o7Ut9w1B62sZLuHbKKad0j33sY+eqf1qhb3/7293zn//87ogjjuhufvObb2s7Ne0un5tcKG51UVjOjwceeODMi9ltNXiJb5p1Dv/7v//77uyzz+6e/OQnb7u2su0b3ehGG989s+r7z//8z+6P//iP++Pxmte85rbrnHzj5I8r+UEm/TbrleMp1yp//ud/LnBdWi+02dC+ffv6H9Euuuii7jd/8zf7Sic/g8985jP7UH+rz26bFqullcBm4UXOaSUEKD/KLhJe5Lvj0EMP7V74whdu/Mg7PG/kPJVzZgkvJsc7k+OiWddvQ7tZ115lP+5973svdJ5t1U/qITBNYO7wIifvq1/96t0///M/73fRNQwvUkF+hb3lLW859UORi9O8crGw2aBm2ja3Ci+mzQDR5QT2gsDYw4symJj1vbEX+nC7+/jud7+7e8ADHtB95zvf6Q444IDu1a9+dXfb295204FYLtZf9KIX9WUOP/zw7gY3uEF3ySWXdB/84Ae78847r/916KlPfWr/XZ5ja7PXbgwvHv3oR3dve9vbtgxLNtsv4cX+P0Dkh4v73//+3R3ucIdL/dJYc+zOG15885vf7B784Ad3X/jCF5Ye8kyGF0cffXR3+umn95+faa98Jo455pjuM5/5jPCiprN3Qdm/+qu/6vvupJNO2rgmFV7sgo7ZBU3YLLzIbPIvf/nL3XCAv0h4ke1l/JRzdZlVHoIyJio/7M4KLybHS4uEF6nXeGkXHICasJBAVXiRX8MSPORDWG4fGX4IPvWpT3W//du/3f/qNfyAlhbmpJGTSH4dzGvazIv8+bDcrA/zQnvtzQTWSGDs4cUadUXzXcl38hlnnNEHDZnq+sAHPrC/MJkWOvzv//5vP0si3893v/vdu+c85zn7zbDIr5S5KHr84x/f5dfm/Eo0a2pq2dFheJFf5HOxl+/vVc68yAXhO9/5TuHFEo/GWbMjaquYFl5M20YJGDKAmDXdurbuUr5s+9xzz+2ueMUr9r92vu51r+tnHk175RjPDNHLXvayXWbMbDWDaLvt8r7lC5Tp9cPZXJPhRf4u33VmXizffzdvcbPwIreDZPb4cBb4ouFFbjX593//940QLdvLeOlOd7pT94pXvGLLmRc5p5Vxl/BiNx9Z2tZCoCq8yAk8r8yCyBd+ue+rrHnxd3/3dxv3y0+7t2uYHl7rWteaGV4My+VXwcn1MwpMmWo1ra4WeOogsBsEdnt4Meu+y8lpmbvBckxtyMDufve7X/f93//93WmnndY95jGP6UOH17/+9d0hhxxyqV157Wtf2//Sc6tb3ap71ate1R188MFTdzcXSLlou81tbtMP1DJgm/XKdNj73Oc+3YknntgH0/m1/CMf+cilbvtreduI8GL5R/E6hhc5JnOb1J/+6Z/2n4f8Kjr5KkHHt771rf6v/vVf/1V4sfzDa8e2OC28uOCCC7p73ete3ZWudKU++M0/v/u7v9tf0y5yu9qO7YQN74jAVuFFzoM5lyRwGK4hsZ01LzJGevrTn96HZLktN7ei5NhMIJGQpNyqu9maF8Prpc3WvCjHsdtGduSwsdFdIlAdXmRGxXCBmTe84Q0bC3buZHix1W0ju8RTMwg0F9jt4cWsGVbNodaswhJG5BfDfCc/5SlP6dcIyEVXpvgPX2UQ9rd/+7dT/35YNqHIQx/60O5Hf/RH+0Diete73ky5rIOQQV/WJUh4kls2PvCBD2z8Wl5z+8Vma14kEMk+vve97+1vObzuda/b/cqv/EpfZ1mfowywhwvMTi4Km/e++MUv7u+Dz20ACb7vfOc79+t1DNf5qGl3cMrF5Fa/3m625kWCp8xKTL9mFuNlLnOZ/raehz/84V3WM8n/l1dmyeR8m1k0uaUjF9jZl1vf+tbdcccd19+6WV5lAbqscZIBewbr+XfuwU6weMIJJ3RXvepVN8pPBhXTFvod7mdpywte8ILuwx/+cN8/uTif1vZ5bhuZdmGeHypyK1MGmZn5mQFn/j153CbMyysB3qx1MoZ9+8QnPrH7oz/6o+4Xf/EX+5lLl7vc5fbbZmlvPk9ZG2ZaCPfVr361Dw9zq9JnP/vZLkHHtOMzGy59kcFQgpAMZtLXP/RDP9Td/va374/DG97whvu1oca3vDGflwxiskZJ2hO/zKjKPuTfk2uX5dhLEJlfgNOHOdZ+/ud/vj828svwcCbXcB8++clP9sdTud0s/tmHsq9vfOMb+89ZjoXjjz++D1uHx3HKxTRrTpx11lkbn+38MJZB4vC4HC4cn3A1t7+9/e1v79+T7Sc4zWfl8pe//NRF41NXTFImM9Qykyb7G6PcWpIAy+Lva3aS3GR35gkvhutD3Pe+9+2/L7cbXuQzf/LJJ/fbyDgq36sJLvKaDC8mxzvle6j8aDzvzItZPxwJ6vbOcb6ue7qt8KKc/HPxcJ3rXGcjvHDbyLoeJvZrNwsIL3Zz7+xM27773e/2g9R3vOMdG+tclPUvMhCbXLizrFmQ+/oTOP/Mz/zMUhqWXzEzsM4tI3e72936W1He8573bCzGWBMCTAsvMnDLAONJT3pS9z//8z/9AO/Hf/zHu09/+tP97SmZwfeyl72sn03yuc99rv/vBBznn39+H27kHJXBSgKYrOkRs3/8x3/sB/eHHXZYf19zBi/XuMY1NrYTmJp2LyO8yJN9EgC95S1v6bKY5S/90i916eMsqJopzJlenAvODMzyOvPMM/vBYPrzdre7XT/4zXpU73//+/tbIRJU3OUud9kYRGZwmH1+61vf2v3cz/1cPzMnHjkuYpoBaAbceU2GF8U0g/OUyaA2A+y4pn8ycE+wkJk8pS3Zn/zamIFzCR2G295swc60KwPJHEdZMf/II4/st50FFzNoza+VWdsl/Tt8ZfCboPSRj3xkX+es17Bvs98JLRI6TPtclIF6Aq+EgpPhRY6zMtsoA5LrX//6fb+V9WMyeyn78pM/+ZP79cVNb3rTfv9y3CZkSWAQr7hm33Js5lXrm/ckhMhMqNilb/MZSMiYBVAzk/Vd73rXfuHFxRdf3JfP5yzXc+nDvHLsZaHLhKIJMUqAEZPnPe95ffiVMCT7kDryOcoxmD747//+794q24pHQtMcC5PBakLE1P0f//Ef/YAufuWzHaO0qRyXZSCZX6cTtuSffE6y3Ww/AV6OjwwE812RPks/5EkOCWDS3sy0uetd79rfIpKgKoFbPgP57D33uc+dervzUr4obWTXCcwTXpTv9hxX+f7NsbVIeJHAOd9fCfjKLfY5/rYKL9KO4ZqB84YXkz8cTT44Ydd1igYRmFNgW+HF8CIkJ+VMv0uqmNeqFuycc38VI7B2AsKLtevSLXeoLCJ44xvfeCOoKE9FyAB2cuHO8mt261t1akKAaeFFZnHknJJXBuBlMdJhqJEBT2Yr/NiP/VhfbtptI8OZJ7kQzT+TQcBwOzXtLhe4233aSAZ3+TU8g6cMonIhW54YU0KNXPTm4jn79l//9V/9zJoMLLNWQ9pdXhko5xfprD2Sacp5lXVJMsB8xjOe0Q+2852R4yUX4vn1vwz68ufTbhGZddtIOQ4POuig/QaaqTchUurK4DP9kzLzzLzIe2eteZHjOr+aZzA9XNslx0Ps/vqv/3rLRWsn+zaL5WXG0OStI6VcBrkJ5RJ8DcOL1JnbDBJ+TA7ws75MZolkAD3cbumLDKSHx/Ow/PBX0VrfBF2ZCZXZRzmecktXXsO+zv8PZ16UNmUdnBwLCQTzKsFM/j0ZhuV4mdyH4cKmCTKzCGpmb+WVmTC/8zu/0//SXBZHHbZ1eFwOA5u0Kb75PAwfuz35OSnH2o/8yI/04c1P/MRP9PVOu21kyy9XBfaEwLzhRTmnJPTOLKutZj/kO2649t9wXcAEimWdi4997GN9mJdjdN7wIuFivnO2G16U77Ts0+ST5vZEp9vJtRHYdngxvCgaXhB7VOraHBt2ZCQCwouRdNQSm5lBRgZck495nDW4W3V4kV9Y530NB2+5UMu0/mnTXMvskwyGhgPEaeFF+VU+swYm1/EYDkLLL8PbDS/m3cfhek359TrT1q9ylav0A+9coA5fZUZNCVfyq3KCksyw2Oz2iLKNMjh92MMe1j9lZnhrRGYclKn8ZdBXE15kVkYGyQmYJtcLKIPNMljObS2LhhelvRnMDvf93/7t3/oZQAmwtroon+zbhFjxn7x1pLQ1M1wyjTv7OAwv8kt/fsHPzIUcU2XAPOk+PHZLX2R2SD7Dw9sxpt16VOs76/OfNpWwILMwSnhR1s3JDKppTyoqn5tc45VjZ9Y+DJ/iMhkEZUZGpt3nx67SP+U7bNpxOS2ILcdT8R4uCj/r8yq8mPcbae+VqwkvhsFZ+ezMeuTocJ2M3D43+WSPEtKX7cwTXkwGItsNL9LLy1q/aO8dMfZ4NwksFF7MSvEmH0WWHZ68F3j4ZTAEmVyEc9q2huXLdj36ZzcdVtrSUmA3hBfTBqc5OefzPOu+yxjlwv43fuM3Np2x1dJyDHXl4j2DqUy1nlycswzush/Dv1t1eJFp3VlTosx2mOac/cl5oQz2yuMyM6U+A6tMEZ98lQVD80tspoDnNS28yC/jWXD6D//wD/vZBlttZ7vhRQboV7va1WYeRvmFPWsdJIgoT9Eoj3NMiJBf4yefFPO1r32tn22QtQMyg+Fnf/Zn+/NpBsz5fOU+/dxCkVsOJtcTSEPKYDO3mmSAP3wlAMrtGOVWjDwKtSa8GG4rtwokRPjEJz7Rr4GQ7eRW0uG+LhpelMAq3ze5NSq3AJRwJOFC+jfHwmavyb7N7KVMr568dSRuqSOzW7J2ymR4Mawj/ZowI/ue2x4y+ym3LAyP52FfZG2arNcyfG01qJjHN4FmQoHJNS1ST0K6HDe5Vab8fW4hyUyNm93sZn0AmABt+CqLWybwyu0XucWlHE+TgeJmn5lyvZf3J7xI8JbjLv897bhMG/JrdNYkKVZlGz/wAz+w0ZZhW6d97oUXYzijraaNNeFFWliOpeFna56xzuTYZBhW5HwxLbyYdT1V1mTZbMHOss7TZg9F8LlYzTGn1uUJzBVeLK86WyJAYNkC2wkvlt0G22snUAYc+dV0s9dwVkYZIGdwOm2QslOtrwkBJm8byWDw6KOP7hJiZOG/sm7AsK3FItPRy4KL0wYxZdv5BTlrZky+Mh04azrk/v3hLZDzPCVleGG7nQU7E1ikfbOClWkBQ6by59f7hA7llQvh3NufoCP7MVyjIHXMCoAmfwmsDS/ShtyikjUcyiu/OGZdlS984Qv9QqIlqFk0vMj2s60ECRn8ZmDwve99b2Mtk3nWc5l2TJZZAGXGwPCWkQQY//d//zc1vMg08NzyENscr+WVW2VyO22Ct2kzL6aFC7PCi3l9EzxMPu1n8jgvgcDwV9+Ey1kHJTMZJoOz7Hf6NbN9yiNiS3gxuQ814UXalT7MrKKszZLbPSZfF154YR9SlM/UZACSY2z4El7s1Lf4em7XddN69qu92hsCwou90c/2co0FnITXuHMndm14i8OsmQzl1/0MCsrCneXWhKywv9UAL3XkV+H8Ep1fscvCj9tRbhVe/Oqv/urGrIXNwout9qHcAlkGV7spvMggchhAXHLJJf1jafPLddbEyGyHvLJ453ANhrLoZBl8ThosEl78zd/8Tf9kmhxXv/7rv94viHiTm9ykX8Axa3JkYFwCh2XcNpJtlVsd8t+ZXZRbDDJrJYtcTt4WM62/px2TZb2GcutIgoTMSMitMPkMTHtP6k2AkpkZWRizPEUgt49kMD5thsKsgX/aOS28qPEtj1nc7JidFV5s9bkYPrVnmeHFPLeTCS+26h1/vx0B103bUfMeArtDQHixO/pBKwhsW8BJeNt0o3tjubc/DR8uTDfckTJjIfe4l/vYyz3kGQxNe5Tq8P3l1pM8nWDaffA1aIuEF/PcNlLu8Z/3tpFZU9Qn96mm3XnvIo9K3eq2kbJAZ243yW0juVVk2ithQW4JyAA+0/PLbUObDZi/853vdFlzoAQjNbeNlBkhmamSBR1z68XwtRNrXpTtJ1RIvQnn0ldZBC/rQ5SwZLNjdFYQkfZnocu45TjJPwkmEsZMe0+Z9ZMneCQYmrxdaNHwYju+k0HU0GGz20aG4d9Wn+9lhBfltpHJQG6zus282Kpn/H2NgOumGi1lCewuAeHF7uoPrSFQLeAkXE022jdk8JoBSn4Vnlzwb7hTZY2H4VMZEnbkiQl5TOXw6RyTA5xMc8+6EFnEsKz0v12wmhBg2tNG5l2wc3iLzLSZF5O3GkxOj19leDHvgp1ZyPOMM87o177IWgAZNGe/hwtwlvUxPvnJT15qmv/kEzqyzyWoyi0O2XZmTMx728hWfVsWe8wMoWXeNpJ2l+Agi0DmloasNTHP4qV576x25/MU18xOSMiX2xLKkzGmvWezwKqEhfnMbfe2ke34lluQpvV1mbGSwKDc8lHC0Ctc4Qpz+y0jvCgLGeapJVmrZqt1StJvwovtfgt73zQB102OCwLjFRBejLfvtJxAL+AkvDcOhPIreQaF+dV5s1+ZyxMq8qjC8gt8bifJYOH5z39+d+c737lfCC8D4PLKbQgZwGXwlvvn80t21k5Y5LXVAGy47e0+KvWQQw7p1/Eoa2JkO1kjI7MyspBlXpmVkLUgcpvFaaed1q+lUQKM8hjJvCfhzpOf/OSZA9xZFovMvJj3UalPfepT+8dvlkFo/p0+yi0L5VUeGZlbNEoYMXw8Z/q8mAwfnzkcYG8WXuRpLWVAP5wZkGMmx1YxzaKVWYj33HPP7WeKbDe8+NznPrcx+2FoXxatjUHWvLjXve7VxWee16xjstw6cuCBB/aL4Z544on9eguzAo8SoGQNlRx/17ve9fqy+RzlCTlZB+Rb3/rWtsOL7fiWJ4pk9tXznve8LjMq8hp+9vP/JbzIbIy45Z/Jx4/m73IMpV/T7wky832yrPAix0gC0oRPw8fGpn2Z9RX7D33oQ/2aIlmgeJHwIn2ZdnsRKAKumxwLBMYrILwYb99pOYFewEl4bxwIZXCVe9tn3TJSJMrgLr8gD3/ZzJ/nQv4Vr3hF/8vy4Ycf3gcYGUC8733v63/Vz/3tGXxl/YdFX4uGFxlApa1PetKT+jZmoJ7BYgY+GWRnRfXhgDztLYOrW9/61t0v/MIv9GsyHHroof3+ZY2CPEEh6yPkKRPD/c62c9tFFlusaXfqXCS8yPu/9KUv9YPHt7zlLf3MmDxZJYPXc845p3/EZYKA7Ff6Pq/c0pBHeA5N0rd5qkteeXzpfe5zn/6/i0eeUpJ6sp+ZYZFHZmZ9hJR78Ytf3GXQnte08KL8Qp8FOI888sj+saJpU/Y77c4gPQs+5skiKXP22Wd3t7vd7fqFLnNMlfU25l2wM/2e7aZdGYDf9KY37W8NOfjggzcOyZNPPrk76aST+uOh5vamWX07nC0Rq3LLSCqc9p782cMf/vB+UcnMisn+ZhZMXDMDJk9CSX/m35khM+yLeRfsTLka32nHRm4hysKhOY7yiNm0exjs5bjJ4q85pvI5ueUtb9k/DeRjH/tY/76rXvWq/fdBeVLNssKLtDXfY/k+ysKnOaayyGvak/A1YcXw2NxOeFGOt9R1xBFHdFnYd55bixb93vP+3S/gumn395EWEpglILxwbBAYuYCT8Mg7cM7ml8Fa1iiYZ2HCUr4sQllW588vwxnkZr2ABCJ5ckVeubc/v8pnIJNf7pfxqgkBps28KG3IjIkMmjKzIIOYBAxpaxYWzW0Jw1cG6BnUZmCd+ofrXGTdiOc85zn9k0Wy31ncMuHNve997z7kyEBt1mB1M49Fw4tsO4Pn9Elu6ckjRvPY04RLGSBn4Dh8DGoG91mkM7No8ut0fmlPnyWwyeyRDEDLqww2Mxj/yle+0q9PkUAh284TH7LWQwa15TUtvCi/wmeGRQKPu93tbv1sgxxT73jHO7pnP/vZfTvySjCUp16kzZnRkUfUlqd4zBteZDu5FSS3L2Ugm9Bi8mkp07Y1zzG72TFZnjoSl/L0ms2OhzylJiaZoZDjMn2QsCKzBhJk5LaWrIWRPj3ooINmzlpIHbPca3zL/ieoi33Cr7wygyq3kiQsyNNLJhdvnTz2EkblM5an12RfEqhNHk+LPG1k+KSQyc92CVUz2yLHUDk2txNeZMZJvivzTwkBpz2OeJ7jRpn1EnDdtF79aW/2loDwYm/1t71dQwEn4TXsVLtEYEkCmy3YuaQqVrKZcmtUeSLIShoxokpLaJOZR1s9cWhEu6WpBLYl4LppW2zeRGBXCAgvdkU3aASB7Qs4CW/fzjsJrLvAOoYXmSmQ2ykyC6Ss6bLu/TjP/mUGUG4nyuypxz/+8RtrkJSZM5l9kcfZLroQ7zxtUYbAbhZw3bSbe0fbCGwuILxwhBAYuYCT8Mg7UPMJ7KDAOoUXmf6fNVAyiyC3ypRFTHeQb1SbzqyKLEyb28HKui7ZgbJ+Rda0iGEW4PQisJcFXDft5d6372MXEF6MvQe1f88LOAnv+UMAAIGZAusUXrz1rW/tsuZLXlkLJAu5Xv7yl9f7A4GsDZGFTrOuSx7Dm9dOrGcDncCYBVw3jbn3tH2vCwgv9voRYP9HL+AkPPoutAMECBAgQIBAIwHXTY2gVUNgBwSEFzuAapMEWgo4CbfUVhcBAgQIECAwZgHXTWPuPW3f6wLCi71+BNj/0Qs4CY++C+0AAQIECBAg0EjAdVMjaNUQ2AEB4cUOoNokgZYCTsIttdVFgAABAgQIjFnAddOYe0/b97qA8GKvHwH2f/QCTsKj70I7QIAAAQIECDQScN3UCFo1BHZAQHixA6g2SaClgJNwS211ESBAgAABAmMWcN005t7T9r0uILzY60eA/R+9gJPw6LvQDhAgQIAAAQKNBFw3NYJWDYEdEBBe7ACqTRJoKeAk3FJbXQQIECBAgMCYBVw3jbn3tH2vCwgv9voRYP9HL+AkPPoutAMECBAgQIBAIwHXTY2gVUNgBwSEFzuAapMEWgo4CbfUVhcBAgQIECAwZgHXTWPuPW3f6wLCi71+BNj/0Qs4CY++C+0AAQIECBAg0EjAdVMjaNUQ2AEB4cUOoNokgZYCTsIttdVFgAABAgQIjFnAddOYe0/b97qA8GINjoDzzjuvO+aYY7rPfOYz3Qte8ILuUY961KZ79ZGPfKT7gz/4g+6cc87pLrnkku6www7rjjvuuO6oo47qckB4jUvASXhc/aW1BAgQIECAwOoEXDetzl7NBBYVEF4sKrgL3n/qqad2p5xySnfFK16xu9GNbtS95jWv6Q488MCpLXvzm9/cHX/88d33vve97ogjjugud7nL9SHGRRdd1D3lKU/pTjjhBAHGLujTmiY4CddoKUuAAAECBAjsZQHXTXu59+372AWEFyPvwYsvvrg79thj+zDi2te+dvf2t7+9e/WrX93d4Q53uNSeJaB44AMf2F1wwQXdy172su5Wt7pVX+b888/vHvzgB3df+9rX+vdmJobXeASchMfTV1pKgAABAgQIrFbAddNq/dVOYBEB4cUiervgvWeddVb3kIc8pHvQgx7U3eY2t+n/OwFFZmNM3gJSyk77+9e+9rXdIx7xiO6kk5BJvwIAAAoTSURBVE7qHvvYx+6CPdOEeQWchOeVUo4AAQIECBDY6wKum/b6EWD/xywgvBhx7+3bt68PGl71qld1L3/5y7ub3/zm3dFHH91985vf7F7/+td3hxxyyH57l9tCnva0p3Vnnnlmv77F8PXRj360Xzfjxje+cXf66ad3BxxwwIhl9lbTnYT3Vn/bWwIECBAgQGD7Aq6btm/nnQRWLSC8WHUPLFD/Zz/72e5+97tfd6UrXak744wzuqtf/erdySef3M+emLZwZ2ZWvPOd7+zXxLjFLW6xX81f/OIXu3ve8579WhmZhXHQQQct0DJvbSngJNxSW10ECBAgQIDAmAVcN42597R9rwsIL0Z8BLz0pS/tb/XIbIrf//3f7/fk3e9+d/eABzygu+ENb7jfwp2ZjZF1LfKkkWnhRda7yO0kF154YfemN72pXz/DaxwCTsLj6CetJECAAAECBFYv4Lpp9X2gBQS2KyC82K7cit/37W9/u1/f4v3vf3+/yOZtb3vbvkXlz9/1rnf1t5Lc9a537f/861//er8uxsc//vGp4UX5+y9/+cvCixX3bW31TsK1YsoTIECAAAECe1XAddNe7Xn7vQ4CwouR9mKZYXH44Yd3r3zlK7srX/nKG3vywhe+sHv0ox/dPexhD+te9KIX9Y9DNfNipB09R7OdhOdAUoQAAQIECBAg0HX9gvZZN86LAIHxCQgvxtdnfYvL4pubNf/QQw/tXve613UJOPKy5sVIO3uLZjsJr2e/2isCBAgQIEBg+QKum5ZvaosEWgkIL1pJL7Ge3NqRhTovuOCC7sgjj+yucIUrXGrrH/7wh7v3vve9+62H8axnPat74hOf2N8Wco973GO/93jayBI7qPGmnIQbg6uOAAECBAgQGK2A66bRdp2GE+hnTn1f12X2lOlTYzke8jSQzKK4733vu3FbyGTbzzrrrH5NjBvc4Ab9Y1Ovec1rdm9729v6xTyzMOepp57ad355Zd2M/Pkpp5zSP37VazwCTsLj6SstJUCAAAECBFYr4Lpptf5qJ7CIgPBiEb0VvPe73/1ud9xxx3VveMMbupe85CXd/e9//6mtuPjii7tjjz22e8973rNR7itf+UpfPk8UyZNKyiKf559/fv8kkjxxJCHGYYcdtoI9U+V2BZyEtyvnfQQIECBAgMBeE3DdtNd63P6uk4DwYmS9ed5553XHHHNMd/DBB2/MqJi1C5ld8bjHPa47+uiju9NPP7074IADujPPPLM7/vjj+7ccccQR/WKe55xzTnfRRRf162iccMIJ+83IGBnPnmyuk/Ce7HY7TYAAAQIECGxDwHXTNtC8hcAuERBe7JKOmLcZJZA48cQT+1s/NnuVoCNlhgt3nn322d1pp53WnXvuud0ll1zSz7TIbI6jjjpKcDFvR+yick7Cu6gzNIUAAQIECBDY1QKum3Z192gcgU0FhBcOEAIjF3ASHnkHaj4BAgQIECDQTMB1UzNqFRFYuoDwYumkNkigrYCTcFtvtREgQIAAAQLjFXDdNN6+03ICwgvHAIGRCzgJj7wDNZ8AAQIECBBoJuC6qRm1iggsXUB4sXRSGyTQVsBJuK232ggQIECAAIHxCrhuGm/faTkB4YVjgMDIBZyER96Bmk+AAAECBAg0E3Dd1IxaRQSWLiC8WDqpDRJoK+Ak3NZbbQQIECBAgMB4BVw3jbfvtJyA8MIxQGDkAk7CI+9AzSdAgAABAgSaCbhuakatIgJLFxBeLJ3UBgm0FXASbuutNgIECBAgQGC8Aq6bxtt3Wk5AeOEYIDByASfhkXeg5hMgQIAAAQLNBFw3NaNWEYGlCwgvlk5qgwTaCjgJt/VWGwECBAgQIDBeAddN4+07LScgvHAMEBi5gJPwyDtQ8wkQIECAAIFmAq6bmlGriMDSBYQXSye1QQJtBZyE23qrjQABAgQIEBivgOum8fadlhMQXjgGCIxcwEl45B2o+QQIECBAgEAzAddNzahVRGDpAsKLpZPaIIG2Ak7Cbb3VRoAAAQIECIxXwHXTePtOywkILxwDBEYu4CQ88g7UfAIECBAgQKCZgOumZtQqIrB0AeHF0kltkEBbASfhtt5qI0CAAAECBMYr4LppvH2n5QSEF44BAiMXcBIeeQdqPgECBAgQINBMwHVTM2oVEVi6gPBi6aQ2SKCtgJNwW2+1ESBAgAABAuMVcN003r7TcgLCC8cAgZELOAmPvAM1nwABAgQIEGgm4LqpGbWKCCxdQHixdFIbJNBWwEm4rbfaCBAgQIAAgfEKuG4ab99pOQHhhWOAwMgFnIRH3oGaT4AAAQIECDQTcN3UjFpFBJYuILxYOqkNEmgr4CTc1lttBAgQIECAwHgFXDeNt++0nIDwwjFAYOQCTsIj70DNJ0CAAAECBJoJuG5qRq2iKQI5/rwWE4jgvn379i22Fe8mQGAlAk7CK2FXKQECBAgQIDBCAddNI+y0NWqy42+xzjTzYjE/7yawcgFfgivvAg0gQIAAAQIERiLgumkkHbWmzXT8LdaxwovF/LybwMoFfAmuvAs0gAABAgQIEBiJgOumkXTUmjbT8bdYxwovFvPzbgIrF/AluPIu0AACBAgQIEBgJAKum0bSUWvaTMffYh0rvFjMz7sJrFzAl+DKu0ADCBAgQIAAgZEIuG4aSUetaTMdf4t1rPBiMT/vJrByAV+CK+8CDSBAgAABAgRGIuC6aSQdtabNdPwt1rHCi8X8vJvAygV8Ca68CzSAAAECBAgQGImA66aRdNSaNtPxt1jHCi8W8/NuAisX8CW48i7QAAIECBAgQGAkAq6bRtJRa9pMx99iHSu8WMzPuwmsXMCX4Mq7QAMIECBAgACBkQi4bhpJR61pMx1/i3Ws8GIxP+8msHIBX4Ir7wINIECAAAECBEYi4LppJB21ps10/C3WscKLxfy8m8DKBXwJrrwLNIAAAQIECBAYiYDrppF01Jo20/G3WMcKLxbz824CKxfwJbjyLtAAAgQIECBAYCQCrptG0lFr2kzH32IdK7xYzM+7CaxcwJfgyrtAAwgQIECAAIGRCLhuGklHrWkzHX+LdazwYjE/7yawcgFfgivvAg0gQIAAAQIERiLgumkkHbWmzXT8LdaxwovF/LybwMoFfAmuvAs0gAABAgQIEBiJgOumkXTUmjbT8bdYxwovFvPzbgIrF/AluPIu0AACBAgQIEBgJAKum0bSUWvaTMffYh0rvFjMz7sJrFzAl+DKu0ADCBAgQIAAgZEIuG4aSUetaTMdf4t1rPBiMT/vJrByAV+CK+8CDSBAgAABAgRGIuC6aSQdtabNdPwt1rHCi8X8vJvAygV8Ca68CzSAAAECBAgQGImA66aRdNSaNtPxt1jHboQXi23GuwkQIECAAAECBAgQIECAAAECOyfwfTu3aVsmQIAAAQIECBAgQIAAAQIECCwu8P/4nQGimRl+mQAAAABJRU5ErkJggg==;" vertex="1" parent="1">
          <mxGeometry x="820" y="840" width="1294.64" height="1210" as="geometry" />
        </mxCell>
        <mxCell id="FY81dZ7kDu10n6bw8b0m-5" value="&lt;font style=&quot;font-size: 14px;&quot;&gt;&lt;br&gt;Регистрация и авторизация&lt;/font&gt;" style="html=1;align=center;verticalAlign=top;rounded=1;absoluteArcSize=1;arcSize=10;dashed=0;whiteSpace=wrap;" parent="1" vertex="1">
          <mxGeometry x="970" y="1130" width="180" height="90" as="geometry" />
        </mxCell>
        <mxCell id="FY81dZ7kDu10n6bw8b0m-6" value="" style="endArrow=classic;html=1;rounded=0;entryX=0.5;entryY=0;entryDx=0;entryDy=0;" parent="1" target="FY81dZ7kDu10n6bw8b0m-5" edge="1">
          <mxGeometry width="50" height="50" relative="1" as="geometry">
            <mxPoint x="1060" y="980" as="sourcePoint" />
            <mxPoint x="1060" y="1120" as="targetPoint" />
          </mxGeometry>
        </mxCell>
        <mxCell id="FY81dZ7kDu10n6bw8b0m-7" value="&lt;font style=&quot;font-size: 10px;&quot;&gt;Пользовательское соглашение&lt;/font&gt;" style="text;html=1;strokeColor=none;fillColor=none;align=center;verticalAlign=middle;whiteSpace=wrap;rounded=0;rotation=-90;" parent="1" vertex="1">
          <mxGeometry x="1030" y="1030" width="60" height="30" as="geometry" />
        </mxCell>
        <mxCell id="FY81dZ7kDu10n6bw8b0m-8" value="" style="endArrow=classic;html=1;rounded=0;entryX=0.007;entryY=0.777;entryDx=0;entryDy=0;entryPerimeter=0;" parent="1" target="FY81dZ7kDu10n6bw8b0m-5" edge="1">
          <mxGeometry width="50" height="50" relative="1" as="geometry">
            <mxPoint x="840" y="1200" as="sourcePoint" />
            <mxPoint x="920" y="1270" as="targetPoint" />
          </mxGeometry>
        </mxCell>
        <mxCell id="FY81dZ7kDu10n6bw8b0m-9" value="" style="endArrow=classic;html=1;rounded=0;entryX=-0.003;entryY=0.214;entryDx=0;entryDy=0;entryPerimeter=0;" parent="1" target="FY81dZ7kDu10n6bw8b0m-5" edge="1">
          <mxGeometry width="50" height="50" relative="1" as="geometry">
            <mxPoint x="830" y="1150" as="sourcePoint" />
            <mxPoint x="890" y="1240" as="targetPoint" />
          </mxGeometry>
        </mxCell>
        <mxCell id="FY81dZ7kDu10n6bw8b0m-11" value="&lt;font style=&quot;font-size: 10px;&quot;&gt;Данные о клиентах&lt;/font&gt;" style="text;html=1;strokeColor=none;fillColor=none;align=center;verticalAlign=middle;whiteSpace=wrap;rounded=0;rotation=0;" parent="1" vertex="1">
          <mxGeometry x="850" y="1125" width="110" height="30" as="geometry" />
        </mxCell>
        <mxCell id="FY81dZ7kDu10n6bw8b0m-12" value="&lt;font style=&quot;font-size: 10px;&quot;&gt;Данные о персонале&lt;/font&gt;" style="text;html=1;strokeColor=none;fillColor=none;align=center;verticalAlign=middle;whiteSpace=wrap;rounded=0;rotation=0;" parent="1" vertex="1">
          <mxGeometry x="850" y="1175" width="110" height="30" as="geometry" />
        </mxCell>
        <mxCell id="ozB75tdWuCOPc9oadPOf-38" style="edgeStyle=orthogonalEdgeStyle;rounded=0;orthogonalLoop=1;jettySize=auto;html=1;exitX=0;exitY=0.25;exitDx=0;exitDy=0;entryX=0;entryY=0.25;entryDx=0;entryDy=0;" edge="1" parent="1" target="FY81dZ7kDu10n6bw8b0m-13">
          <mxGeometry relative="1" as="geometry">
            <mxPoint x="1210" y="1410" as="sourcePoint" />
          </mxGeometry>
        </mxCell>
        <mxCell id="ozB75tdWuCOPc9oadPOf-40" style="edgeStyle=orthogonalEdgeStyle;rounded=0;orthogonalLoop=1;jettySize=auto;html=1;entryX=0.5;entryY=0;entryDx=0;entryDy=0;" edge="1" parent="1">
          <mxGeometry relative="1" as="geometry">
            <mxPoint x="1209.69" y="1580" as="targetPoint" />
            <mxPoint x="1320" y="1550" as="sourcePoint" />
            <Array as="points">
              <mxPoint x="1210" y="1550" />
              <mxPoint x="1210" y="1550" />
            </Array>
          </mxGeometry>
        </mxCell>
        <mxCell id="ozB75tdWuCOPc9oadPOf-42" style="edgeStyle=orthogonalEdgeStyle;rounded=0;orthogonalLoop=1;jettySize=auto;html=1;entryX=0;entryY=0.75;entryDx=0;entryDy=0;" edge="1" parent="1" target="FY81dZ7kDu10n6bw8b0m-13">
          <mxGeometry relative="1" as="geometry">
            <mxPoint x="1040" y="1655" as="sourcePoint" />
          </mxGeometry>
        </mxCell>
        <mxCell id="ozB75tdWuCOPc9oadPOf-44" style="edgeStyle=orthogonalEdgeStyle;rounded=0;orthogonalLoop=1;jettySize=auto;html=1;entryX=0.75;entryY=1;entryDx=0;entryDy=0;" edge="1" parent="1" target="FY81dZ7kDu10n6bw8b0m-13">
          <mxGeometry relative="1" as="geometry">
            <mxPoint x="1295" y="1780" as="sourcePoint" />
          </mxGeometry>
        </mxCell>
        <mxCell id="ozB75tdWuCOPc9oadPOf-46" style="edgeStyle=orthogonalEdgeStyle;rounded=0;orthogonalLoop=1;jettySize=auto;html=1;exitX=1;exitY=0.25;exitDx=0;exitDy=0;" edge="1" parent="1">
          <mxGeometry relative="1" as="geometry">
            <mxPoint x="1450" y="1670" as="targetPoint" />
            <mxPoint x="1340" y="1670" as="sourcePoint" />
          </mxGeometry>
        </mxCell>
        <mxCell id="ozB75tdWuCOPc9oadPOf-65" style="edgeStyle=orthogonalEdgeStyle;rounded=0;orthogonalLoop=1;jettySize=auto;html=1;exitX=0.25;exitY=1;exitDx=0;exitDy=0;entryX=0.25;entryY=1;entryDx=0;entryDy=0;" edge="1" parent="1" target="FY81dZ7kDu10n6bw8b0m-13">
          <mxGeometry relative="1" as="geometry">
            <mxPoint x="1205" y="1820" as="sourcePoint" />
          </mxGeometry>
        </mxCell>
        <mxCell id="FY81dZ7kDu10n6bw8b0m-13" value="&lt;font style=&quot;font-size: 14px;&quot;&gt;&lt;br&gt;&lt;br&gt;Контроль безопасности&lt;/font&gt;" style="html=1;align=center;verticalAlign=top;rounded=1;absoluteArcSize=1;arcSize=10;dashed=0;whiteSpace=wrap;" parent="1" vertex="1">
          <mxGeometry x="1160" y="1580" width="180" height="100" as="geometry" />
        </mxCell>
        <mxCell id="ozB75tdWuCOPc9oadPOf-12" style="edgeStyle=orthogonalEdgeStyle;rounded=0;orthogonalLoop=1;jettySize=auto;html=1;exitX=1;exitY=0.25;exitDx=0;exitDy=0;" edge="1" parent="1">
          <mxGeometry relative="1" as="geometry">
            <mxPoint x="1690" y="1359.8166666666668" as="targetPoint" />
            <mxPoint x="1500" y="1359.65" as="sourcePoint" />
          </mxGeometry>
        </mxCell>
        <mxCell id="ozB75tdWuCOPc9oadPOf-13" style="edgeStyle=orthogonalEdgeStyle;rounded=0;orthogonalLoop=1;jettySize=auto;html=1;exitX=1;exitY=0.5;exitDx=0;exitDy=0;entryX=0;entryY=0.5;entryDx=0;entryDy=0;" edge="1" parent="1" source="FY81dZ7kDu10n6bw8b0m-14" target="FY81dZ7kDu10n6bw8b0m-39">
          <mxGeometry relative="1" as="geometry">
            <mxPoint x="1700" y="1385" as="targetPoint" />
          </mxGeometry>
        </mxCell>
        <mxCell id="ozB75tdWuCOPc9oadPOf-14" style="edgeStyle=orthogonalEdgeStyle;rounded=0;orthogonalLoop=1;jettySize=auto;html=1;exitX=1;exitY=0.75;exitDx=0;exitDy=0;" edge="1" parent="1">
          <mxGeometry relative="1" as="geometry">
            <mxPoint x="1700" y="1410.1666666666667" as="targetPoint" />
            <mxPoint x="1500" y="1410" as="sourcePoint" />
          </mxGeometry>
        </mxCell>
        <mxCell id="FY81dZ7kDu10n6bw8b0m-14" value="&lt;br&gt;&lt;br&gt;&lt;br&gt;&lt;font style=&quot;font-size: 14px;&quot;&gt;Управление гостиницей&lt;/font&gt;" style="html=1;align=center;verticalAlign=top;rounded=1;absoluteArcSize=1;arcSize=10;dashed=0;whiteSpace=wrap;" parent="1" vertex="1">
          <mxGeometry x="1320" y="1330" width="180" height="110" as="geometry" />
        </mxCell>
        <mxCell id="ozB75tdWuCOPc9oadPOf-24" style="edgeStyle=orthogonalEdgeStyle;rounded=0;orthogonalLoop=1;jettySize=auto;html=1;entryX=0.75;entryY=1;entryDx=0;entryDy=0;" edge="1" parent="1" target="FY81dZ7kDu10n6bw8b0m-15">
          <mxGeometry relative="1" as="geometry">
            <mxPoint x="1745" y="1330" as="sourcePoint" />
          </mxGeometry>
        </mxCell>
        <mxCell id="ozB75tdWuCOPc9oadPOf-29" style="edgeStyle=orthogonalEdgeStyle;rounded=0;orthogonalLoop=1;jettySize=auto;html=1;exitX=0;exitY=0.5;exitDx=0;exitDy=0;entryX=0;entryY=0.5;entryDx=0;entryDy=0;" edge="1" parent="1" target="FY81dZ7kDu10n6bw8b0m-15">
          <mxGeometry relative="1" as="geometry">
            <mxPoint x="1460" y="1162.3846153846152" as="sourcePoint" />
          </mxGeometry>
        </mxCell>
        <mxCell id="ozB75tdWuCOPc9oadPOf-31" style="edgeStyle=orthogonalEdgeStyle;rounded=0;orthogonalLoop=1;jettySize=auto;html=1;exitX=1;exitY=0.25;exitDx=0;exitDy=0;" edge="1" parent="1" source="FY81dZ7kDu10n6bw8b0m-15">
          <mxGeometry relative="1" as="geometry">
            <mxPoint x="1855" y="1138.6666666666667" as="targetPoint" />
          </mxGeometry>
        </mxCell>
        <mxCell id="ozB75tdWuCOPc9oadPOf-32" style="edgeStyle=orthogonalEdgeStyle;rounded=0;orthogonalLoop=1;jettySize=auto;html=1;exitX=1;exitY=0.75;exitDx=0;exitDy=0;entryX=0;entryY=0.25;entryDx=0;entryDy=0;" edge="1" parent="1" source="FY81dZ7kDu10n6bw8b0m-15" target="FY81dZ7kDu10n6bw8b0m-39">
          <mxGeometry relative="1" as="geometry">
            <mxPoint x="1940" y="1186" as="targetPoint" />
          </mxGeometry>
        </mxCell>
        <mxCell id="ozB75tdWuCOPc9oadPOf-74" style="edgeStyle=orthogonalEdgeStyle;rounded=0;orthogonalLoop=1;jettySize=auto;html=1;exitX=0.25;exitY=1;exitDx=0;exitDy=0;entryX=0.25;entryY=1;entryDx=0;entryDy=0;" edge="1" parent="1" target="FY81dZ7kDu10n6bw8b0m-15">
          <mxGeometry relative="1" as="geometry">
            <mxPoint x="1655.1724137931037" y="1319.9999999999998" as="sourcePoint" />
          </mxGeometry>
        </mxCell>
        <mxCell id="ozB75tdWuCOPc9oadPOf-77" style="edgeStyle=orthogonalEdgeStyle;rounded=0;orthogonalLoop=1;jettySize=auto;html=1;exitX=0;exitY=0.75;exitDx=0;exitDy=0;entryX=0;entryY=0.75;entryDx=0;entryDy=0;" edge="1" parent="1" target="FY81dZ7kDu10n6bw8b0m-15">
          <mxGeometry relative="1" as="geometry">
            <mxPoint x="1210" y="1320" as="sourcePoint" />
            <Array as="points">
              <mxPoint x="1210" y="1300" />
              <mxPoint x="1411" y="1300" />
              <mxPoint x="1411" y="1186" />
            </Array>
          </mxGeometry>
        </mxCell>
        <mxCell id="FY81dZ7kDu10n6bw8b0m-15" value="&lt;br&gt;&lt;font style=&quot;font-size: 14px;&quot;&gt;&lt;br&gt;Обслуживание клиента&lt;/font&gt;" style="html=1;align=center;verticalAlign=top;rounded=1;absoluteArcSize=1;arcSize=10;dashed=0;whiteSpace=wrap;" parent="1" vertex="1">
          <mxGeometry x="1610" y="1115" width="180" height="95" as="geometry" />
        </mxCell>
        <mxCell id="FY81dZ7kDu10n6bw8b0m-16" value="" style="endArrow=classic;html=1;rounded=0;entryX=0;entryY=0.25;entryDx=0;entryDy=0;exitX=1;exitY=0.5;exitDx=0;exitDy=0;" parent="1" target="FY81dZ7kDu10n6bw8b0m-15" edge="1">
          <mxGeometry width="50" height="50" relative="1" as="geometry">
            <mxPoint x="1150" y="1139.64" as="sourcePoint" />
            <mxPoint x="1410" y="1139.64" as="targetPoint" />
          </mxGeometry>
        </mxCell>
        <mxCell id="FY81dZ7kDu10n6bw8b0m-17" value="&lt;font style=&quot;font-size: 10px;&quot;&gt;Идентификатор клиента&lt;/font&gt;" style="text;html=1;strokeColor=none;fillColor=none;align=center;verticalAlign=middle;whiteSpace=wrap;rounded=0;rotation=0;" parent="1" vertex="1">
          <mxGeometry x="1190" y="1120" width="140" height="30" as="geometry" />
        </mxCell>
        <mxCell id="FY81dZ7kDu10n6bw8b0m-19" value="" style="endArrow=classic;html=1;rounded=0;exitX=1;exitY=0.5;exitDx=0;exitDy=0;entryX=0;entryY=0.5;entryDx=0;entryDy=0;" parent="1" source="FY81dZ7kDu10n6bw8b0m-5" target="FY81dZ7kDu10n6bw8b0m-14" edge="1">
          <mxGeometry width="50" height="50" relative="1" as="geometry">
            <mxPoint x="1270" y="1310" as="sourcePoint" />
            <mxPoint x="1250" y="1310" as="targetPoint" />
            <Array as="points">
              <mxPoint x="1250" y="1175" />
              <mxPoint x="1250" y="1385" />
            </Array>
          </mxGeometry>
        </mxCell>
        <mxCell id="FY81dZ7kDu10n6bw8b0m-20" value="" style="endArrow=classic;html=1;rounded=0;exitX=1;exitY=0.75;exitDx=0;exitDy=0;entryX=0;entryY=0.75;entryDx=0;entryDy=0;" parent="1" source="FY81dZ7kDu10n6bw8b0m-5" target="FY81dZ7kDu10n6bw8b0m-14" edge="1">
          <mxGeometry width="50" height="50" relative="1" as="geometry">
            <mxPoint x="1035" y="1410" as="sourcePoint" />
            <mxPoint x="1210" y="1320" as="targetPoint" />
            <Array as="points">
              <mxPoint x="1210" y="1198" />
              <mxPoint x="1210" y="1413" />
            </Array>
          </mxGeometry>
        </mxCell>
        <mxCell id="FY81dZ7kDu10n6bw8b0m-21" value="" style="endArrow=classic;html=1;rounded=0;exitX=1;exitY=0.25;exitDx=0;exitDy=0;entryX=0;entryY=0.273;entryDx=0;entryDy=0;entryPerimeter=0;" parent="1" source="FY81dZ7kDu10n6bw8b0m-5" target="FY81dZ7kDu10n6bw8b0m-14" edge="1">
          <mxGeometry width="50" height="50" relative="1" as="geometry">
            <mxPoint x="1120" y="1290" as="sourcePoint" />
            <mxPoint x="1290" y="1310" as="targetPoint" />
            <Array as="points">
              <mxPoint x="1290" y="1153" />
              <mxPoint x="1290" y="1360" />
            </Array>
          </mxGeometry>
        </mxCell>
        <mxCell id="FY81dZ7kDu10n6bw8b0m-23" value="&lt;font style=&quot;font-size: 10px;&quot;&gt;Идентификатор администратора&lt;/font&gt;" style="text;html=1;strokeColor=none;fillColor=none;align=center;verticalAlign=middle;whiteSpace=wrap;rounded=0;rotation=-90;" parent="1" vertex="1">
          <mxGeometry x="1180" y="1235" width="60" height="30" as="geometry" />
        </mxCell>
        <mxCell id="FY81dZ7kDu10n6bw8b0m-24" value="&lt;font style=&quot;font-size: 10px;&quot;&gt;Идентификатор&lt;br&gt;горничной&lt;br&gt;&lt;/font&gt;" style="text;html=1;strokeColor=none;fillColor=none;align=center;verticalAlign=middle;whiteSpace=wrap;rounded=0;rotation=-90;" parent="1" vertex="1">
          <mxGeometry x="1220" y="1215" width="60" height="30" as="geometry" />
        </mxCell>
        <mxCell id="FY81dZ7kDu10n6bw8b0m-25" value="&lt;font style=&quot;font-size: 10px;&quot;&gt;Идентификатор&lt;br&gt;повара&lt;br&gt;&lt;/font&gt;" style="text;html=1;strokeColor=none;fillColor=none;align=center;verticalAlign=middle;whiteSpace=wrap;rounded=0;rotation=-90;" parent="1" vertex="1">
          <mxGeometry x="1260" y="1210" width="60" height="30" as="geometry" />
        </mxCell>
        <mxCell id="FY81dZ7kDu10n6bw8b0m-32" value="" style="endArrow=classic;html=1;rounded=0;entryX=0.111;entryY=1;entryDx=0;entryDy=0;entryPerimeter=0;" parent="1" target="FY81dZ7kDu10n6bw8b0m-5" edge="1">
          <mxGeometry width="50" height="50" relative="1" as="geometry">
            <mxPoint x="990" y="1870" as="sourcePoint" />
            <mxPoint x="990" y="1480" as="targetPoint" />
          </mxGeometry>
        </mxCell>
        <mxCell id="FY81dZ7kDu10n6bw8b0m-33" value="" style="endArrow=classic;html=1;rounded=0;entryX=0.111;entryY=1;entryDx=0;entryDy=0;entryPerimeter=0;" parent="1" edge="1">
          <mxGeometry width="50" height="50" relative="1" as="geometry">
            <mxPoint x="1020" y="1900" as="sourcePoint" />
            <mxPoint x="1019.9999999999999" y="1220" as="targetPoint" />
          </mxGeometry>
        </mxCell>
        <mxCell id="FY81dZ7kDu10n6bw8b0m-34" value="&lt;font style=&quot;font-size: 10px;&quot;&gt;Системный администратор&lt;br&gt;&lt;/font&gt;" style="text;html=1;strokeColor=none;fillColor=none;align=center;verticalAlign=middle;whiteSpace=wrap;rounded=0;rotation=-90;" parent="1" vertex="1">
          <mxGeometry x="990" y="1430" width="60" height="30" as="geometry" />
        </mxCell>
        <mxCell id="FY81dZ7kDu10n6bw8b0m-35" value="&lt;font style=&quot;font-size: 10px;&quot;&gt;Система&lt;br&gt;&lt;/font&gt;" style="text;html=1;strokeColor=none;fillColor=none;align=center;verticalAlign=middle;whiteSpace=wrap;rounded=0;rotation=-90;" parent="1" vertex="1">
          <mxGeometry x="953" y="1430" width="60" height="30" as="geometry" />
        </mxCell>
        <mxCell id="ozB75tdWuCOPc9oadPOf-58" style="edgeStyle=orthogonalEdgeStyle;rounded=0;orthogonalLoop=1;jettySize=auto;html=1;exitX=1;exitY=0.5;exitDx=0;exitDy=0;" edge="1" parent="1" source="FY81dZ7kDu10n6bw8b0m-39">
          <mxGeometry relative="1" as="geometry">
            <mxPoint x="2110" y="1385.0000000000002" as="targetPoint" />
          </mxGeometry>
        </mxCell>
        <mxCell id="ozB75tdWuCOPc9oadPOf-66" style="edgeStyle=orthogonalEdgeStyle;rounded=0;orthogonalLoop=1;jettySize=auto;html=1;exitX=0.25;exitY=1;exitDx=0;exitDy=0;" edge="1" parent="1" target="FY81dZ7kDu10n6bw8b0m-39">
          <mxGeometry relative="1" as="geometry">
            <mxPoint x="1660" y="1820" as="sourcePoint" />
            <Array as="points">
              <mxPoint x="1930" y="1820" />
            </Array>
          </mxGeometry>
        </mxCell>
        <mxCell id="ozB75tdWuCOPc9oadPOf-70" style="edgeStyle=orthogonalEdgeStyle;rounded=0;orthogonalLoop=1;jettySize=auto;html=1;exitX=0.75;exitY=1;exitDx=0;exitDy=0;entryX=0.75;entryY=1;entryDx=0;entryDy=0;" edge="1" parent="1" target="FY81dZ7kDu10n6bw8b0m-39">
          <mxGeometry relative="1" as="geometry">
            <mxPoint x="1020" y="1869.9999999999995" as="sourcePoint" />
          </mxGeometry>
        </mxCell>
        <mxCell id="ozB75tdWuCOPc9oadPOf-79" style="edgeStyle=orthogonalEdgeStyle;rounded=0;orthogonalLoop=1;jettySize=auto;html=1;exitX=1;exitY=0.75;exitDx=0;exitDy=0;entryX=0;entryY=0.75;entryDx=0;entryDy=0;" edge="1" parent="1" source="FY81dZ7kDu10n6bw8b0m-13" target="FY81dZ7kDu10n6bw8b0m-39">
          <mxGeometry relative="1" as="geometry">
            <Array as="points">
              <mxPoint x="1400" y="1655" />
              <mxPoint x="1400" y="1560" />
              <mxPoint x="1780" y="1560" />
              <mxPoint x="1780" y="1407" />
            </Array>
          </mxGeometry>
        </mxCell>
        <mxCell id="FY81dZ7kDu10n6bw8b0m-39" value="&lt;font style=&quot;font-size: 14px;&quot;&gt;&lt;br&gt;Администрирование&lt;br&gt;системы&lt;/font&gt;" style="html=1;align=center;verticalAlign=top;rounded=1;absoluteArcSize=1;arcSize=10;dashed=0;whiteSpace=wrap;" parent="1" vertex="1">
          <mxGeometry x="1860" y="1340" width="150" height="90" as="geometry" />
        </mxCell>
        <mxCell id="ozB75tdWuCOPc9oadPOf-50" style="edgeStyle=orthogonalEdgeStyle;rounded=0;orthogonalLoop=1;jettySize=auto;html=1;entryX=0.5;entryY=1;entryDx=0;entryDy=0;" edge="1" parent="1" target="Dl9L8k3Tu2RgZ-j4ogxE-1">
          <mxGeometry relative="1" as="geometry">
            <mxPoint x="1715" y="1780" as="sourcePoint" />
          </mxGeometry>
        </mxCell>
        <mxCell id="ozB75tdWuCOPc9oadPOf-53" style="edgeStyle=orthogonalEdgeStyle;rounded=0;orthogonalLoop=1;jettySize=auto;html=1;exitX=1;exitY=0.25;exitDx=0;exitDy=0;" edge="1" parent="1" source="Dl9L8k3Tu2RgZ-j4ogxE-1">
          <mxGeometry relative="1" as="geometry">
            <mxPoint x="1860" y="1420" as="targetPoint" />
            <Array as="points">
              <mxPoint x="1840" y="1605" />
              <mxPoint x="1840" y="1420" />
              <mxPoint x="1860" y="1420" />
            </Array>
          </mxGeometry>
        </mxCell>
        <mxCell id="ozB75tdWuCOPc9oadPOf-55" style="edgeStyle=orthogonalEdgeStyle;rounded=0;orthogonalLoop=1;jettySize=auto;html=1;exitX=0;exitY=0.5;exitDx=0;exitDy=0;entryX=0;entryY=0.5;entryDx=0;entryDy=0;" edge="1" parent="1" target="Dl9L8k3Tu2RgZ-j4ogxE-1">
          <mxGeometry relative="1" as="geometry">
            <mxPoint x="1210" y="1490" as="sourcePoint" />
            <Array as="points">
              <mxPoint x="1210" y="1500" />
              <mxPoint x="1360" y="1500" />
              <mxPoint x="1360" y="1630" />
            </Array>
          </mxGeometry>
        </mxCell>
        <mxCell id="ozB75tdWuCOPc9oadPOf-62" style="edgeStyle=orthogonalEdgeStyle;rounded=0;orthogonalLoop=1;jettySize=auto;html=1;exitX=0;exitY=0.75;exitDx=0;exitDy=0;entryX=0;entryY=0.75;entryDx=0;entryDy=0;" edge="1" parent="1" target="Dl9L8k3Tu2RgZ-j4ogxE-1">
          <mxGeometry relative="1" as="geometry">
            <mxPoint x="1560" y="1780" as="sourcePoint" />
            <Array as="points">
              <mxPoint x="1560" y="1655" />
            </Array>
          </mxGeometry>
        </mxCell>
        <mxCell id="ozB75tdWuCOPc9oadPOf-64" style="edgeStyle=orthogonalEdgeStyle;rounded=0;orthogonalLoop=1;jettySize=auto;html=1;exitX=0.25;exitY=1;exitDx=0;exitDy=0;entryX=0.25;entryY=1;entryDx=0;entryDy=0;" edge="1" parent="1" target="Dl9L8k3Tu2RgZ-j4ogxE-1">
          <mxGeometry relative="1" as="geometry">
            <mxPoint x="1490" y="1820" as="sourcePoint" />
            <Array as="points">
              <mxPoint x="1663" y="1820" />
            </Array>
          </mxGeometry>
        </mxCell>
        <mxCell id="Dl9L8k3Tu2RgZ-j4ogxE-1" value="&lt;span style=&quot;font-size: 14px;&quot;&gt;&lt;br&gt;&lt;br&gt;Формирование закупок&lt;/span&gt;" style="html=1;align=center;verticalAlign=top;rounded=1;absoluteArcSize=1;arcSize=10;dashed=0;whiteSpace=wrap;" parent="1" vertex="1">
          <mxGeometry x="1610" y="1580" width="210" height="100" as="geometry" />
        </mxCell>
        <mxCell id="ozB75tdWuCOPc9oadPOf-5" value="" style="endArrow=classic;html=1;rounded=0;entryX=0.378;entryY=1.005;entryDx=0;entryDy=0;entryPerimeter=0;" edge="1" parent="1" target="FY81dZ7kDu10n6bw8b0m-14">
          <mxGeometry width="50" height="50" relative="1" as="geometry">
            <mxPoint x="1388" y="1540" as="sourcePoint" />
            <mxPoint x="1435" y="1500" as="targetPoint" />
          </mxGeometry>
        </mxCell>
        <mxCell id="ozB75tdWuCOPc9oadPOf-6" value="" style="endArrow=classic;html=1;rounded=0;entryX=0.378;entryY=1.005;entryDx=0;entryDy=0;entryPerimeter=0;" edge="1" parent="1">
          <mxGeometry width="50" height="50" relative="1" as="geometry">
            <mxPoint x="1430" y="1540" as="sourcePoint" />
            <mxPoint x="1430" y="1440" as="targetPoint" />
          </mxGeometry>
        </mxCell>
        <mxCell id="ozB75tdWuCOPc9oadPOf-7" value="" style="endArrow=classic;html=1;rounded=0;entryX=0.378;entryY=1.005;entryDx=0;entryDy=0;entryPerimeter=0;" edge="1" parent="1">
          <mxGeometry width="50" height="50" relative="1" as="geometry">
            <mxPoint x="1470" y="1540" as="sourcePoint" />
            <mxPoint x="1470" y="1440" as="targetPoint" />
          </mxGeometry>
        </mxCell>
        <mxCell id="ozB75tdWuCOPc9oadPOf-8" value="&lt;font style=&quot;font-size: 10px;&quot;&gt;Повара&lt;/font&gt;" style="text;html=1;strokeColor=none;fillColor=none;align=center;verticalAlign=middle;whiteSpace=wrap;rounded=0;rotation=-90;" vertex="1" parent="1">
          <mxGeometry x="1430" y="1480" width="60" height="30" as="geometry" />
        </mxCell>
        <mxCell id="ozB75tdWuCOPc9oadPOf-9" value="&lt;font style=&quot;font-size: 10px;&quot;&gt;Горничные&lt;/font&gt;" style="text;html=1;strokeColor=none;fillColor=none;align=center;verticalAlign=middle;whiteSpace=wrap;rounded=0;rotation=-90;" vertex="1" parent="1">
          <mxGeometry x="1390" y="1480" width="60" height="30" as="geometry" />
        </mxCell>
        <mxCell id="ozB75tdWuCOPc9oadPOf-10" value="&lt;font style=&quot;font-size: 10px;&quot;&gt;Администратор&lt;/font&gt;" style="text;html=1;strokeColor=none;fillColor=none;align=center;verticalAlign=middle;whiteSpace=wrap;rounded=0;rotation=-90;" vertex="1" parent="1">
          <mxGeometry x="1350" y="1480" width="60" height="30" as="geometry" />
        </mxCell>
        <mxCell id="ozB75tdWuCOPc9oadPOf-15" style="edgeStyle=orthogonalEdgeStyle;rounded=0;orthogonalLoop=1;jettySize=auto;html=1;exitX=1;exitY=0.75;exitDx=0;exitDy=0;entryX=-0.007;entryY=0.925;entryDx=0;entryDy=0;entryPerimeter=0;" edge="1" parent="1" target="FY81dZ7kDu10n6bw8b0m-15">
          <mxGeometry relative="1" as="geometry">
            <mxPoint x="1700" y="1339.9966666666667" as="targetPoint" />
            <mxPoint x="1500" y="1340.33" as="sourcePoint" />
            <Array as="points">
              <mxPoint x="1570" y="1340" />
              <mxPoint x="1570" y="1203" />
            </Array>
          </mxGeometry>
        </mxCell>
        <mxCell id="ozB75tdWuCOPc9oadPOf-16" style="edgeStyle=orthogonalEdgeStyle;rounded=0;orthogonalLoop=1;jettySize=auto;html=1;exitX=1;exitY=0.75;exitDx=0;exitDy=0;entryX=0;entryY=0.25;entryDx=0;entryDy=0;" edge="1" parent="1" target="Dl9L8k3Tu2RgZ-j4ogxE-1">
          <mxGeometry relative="1" as="geometry">
            <mxPoint x="1700" y="1429.9966666666667" as="targetPoint" />
            <mxPoint x="1500" y="1430.33" as="sourcePoint" />
          </mxGeometry>
        </mxCell>
        <mxCell id="ozB75tdWuCOPc9oadPOf-17" value="&lt;font style=&quot;font-size: 10px;&quot;&gt;Задачи персонала&lt;/font&gt;" style="text;html=1;strokeColor=none;fillColor=none;align=center;verticalAlign=middle;whiteSpace=wrap;rounded=0;rotation=0;" vertex="1" parent="1">
          <mxGeometry x="1530" y="1363" width="140" height="30" as="geometry" />
        </mxCell>
        <mxCell id="ozB75tdWuCOPc9oadPOf-18" value="&lt;font style=&quot;font-size: 10px;&quot;&gt;Прайс-лист&lt;br&gt;&amp;nbsp;на номера&lt;br&gt;&lt;/font&gt;" style="text;html=1;strokeColor=none;fillColor=none;align=center;verticalAlign=middle;whiteSpace=wrap;rounded=0;rotation=-90;" vertex="1" parent="1">
          <mxGeometry x="1500" y="1245" width="140" height="30" as="geometry" />
        </mxCell>
        <mxCell id="ozB75tdWuCOPc9oadPOf-19" value="&lt;font style=&quot;font-size: 10px;&quot;&gt;Запрос &lt;br&gt;расходых материалов&lt;/font&gt;" style="text;html=1;strokeColor=none;fillColor=none;align=center;verticalAlign=middle;whiteSpace=wrap;rounded=0;rotation=-90;" vertex="1" parent="1">
          <mxGeometry x="1474" y="1480" width="160" height="10" as="geometry" />
        </mxCell>
        <mxCell id="ozB75tdWuCOPc9oadPOf-22" value="&lt;font style=&quot;font-size: 10px;&quot;&gt;Отчеты&lt;/font&gt;" style="text;html=1;strokeColor=none;fillColor=none;align=center;verticalAlign=middle;whiteSpace=wrap;rounded=0;rotation=0;" vertex="1" parent="1">
          <mxGeometry x="1520" y="1400" width="160" height="10" as="geometry" />
        </mxCell>
        <mxCell id="ozB75tdWuCOPc9oadPOf-23" value="&lt;font style=&quot;font-size: 10px;&quot;&gt;Изменение номерного фонда&lt;/font&gt;" style="text;html=1;strokeColor=none;fillColor=none;align=center;verticalAlign=middle;whiteSpace=wrap;rounded=0;rotation=0;" vertex="1" parent="1">
          <mxGeometry x="1520" y="1350" width="160" height="10" as="geometry" />
        </mxCell>
        <mxCell id="ozB75tdWuCOPc9oadPOf-25" value="&lt;font style=&quot;font-size: 10px;&quot;&gt;Клиент&lt;br&gt;&lt;/font&gt;" style="text;html=1;strokeColor=none;fillColor=none;align=center;verticalAlign=middle;whiteSpace=wrap;rounded=0;rotation=-90;" vertex="1" parent="1">
          <mxGeometry x="1710" y="1245" width="60" height="30" as="geometry" />
        </mxCell>
        <mxCell id="ozB75tdWuCOPc9oadPOf-27" style="edgeStyle=orthogonalEdgeStyle;rounded=0;orthogonalLoop=1;jettySize=auto;html=1;exitX=-0.083;exitY=0.5;exitDx=0;exitDy=0;entryX=0.5;entryY=0;entryDx=0;entryDy=0;exitPerimeter=0;" edge="1" parent="1" source="FY81dZ7kDu10n6bw8b0m-7" target="FY81dZ7kDu10n6bw8b0m-15">
          <mxGeometry relative="1" as="geometry" />
        </mxCell>
        <mxCell id="ozB75tdWuCOPc9oadPOf-30" value="Данные о гостинице" style="text;html=1;strokeColor=none;fillColor=none;align=center;verticalAlign=middle;whiteSpace=wrap;rounded=0;rotation=0;" vertex="1" parent="1">
          <mxGeometry x="1470" y="1140" width="140" height="30" as="geometry" />
        </mxCell>
        <mxCell id="ozB75tdWuCOPc9oadPOf-34" value="&lt;font style=&quot;font-size: 10px;&quot;&gt;Отзывы&lt;/font&gt;" style="text;html=1;strokeColor=none;fillColor=none;align=center;verticalAlign=middle;whiteSpace=wrap;rounded=0;rotation=0;" vertex="1" parent="1">
          <mxGeometry x="1750" y="1125" width="140" height="15" as="geometry" />
        </mxCell>
        <mxCell id="ozB75tdWuCOPc9oadPOf-37" value="&lt;font style=&quot;font-size: 10px;&quot;&gt;Данные о бронировании&lt;/font&gt;" style="text;html=1;strokeColor=none;fillColor=none;align=center;verticalAlign=middle;whiteSpace=wrap;rounded=0;rotation=-90;" vertex="1" parent="1">
          <mxGeometry x="1750" y="1275" width="140" height="15" as="geometry" />
        </mxCell>
        <mxCell id="ozB75tdWuCOPc9oadPOf-41" value="&lt;font style=&quot;font-size: 10px;&quot;&gt;Пользовательское соглашение&lt;/font&gt;" style="text;html=1;strokeColor=none;fillColor=none;align=center;verticalAlign=middle;whiteSpace=wrap;rounded=0;rotation=0;" vertex="1" parent="1">
          <mxGeometry x="1230" y="1534" width="60" height="30" as="geometry" />
        </mxCell>
        <mxCell id="ozB75tdWuCOPc9oadPOf-43" value="&lt;font style=&quot;font-size: 10px;&quot;&gt;Данные с smart карты&lt;/font&gt;" style="text;html=1;strokeColor=none;fillColor=none;align=center;verticalAlign=middle;whiteSpace=wrap;rounded=0;rotation=0;" vertex="1" parent="1">
          <mxGeometry x="1020" y="1640" width="160" height="10" as="geometry" />
        </mxCell>
        <mxCell id="ozB75tdWuCOPc9oadPOf-45" value="&lt;font style=&quot;font-size: 10px;&quot;&gt;Администратор&lt;/font&gt;" style="text;html=1;strokeColor=none;fillColor=none;align=center;verticalAlign=middle;whiteSpace=wrap;rounded=0;rotation=-90;" vertex="1" parent="1">
          <mxGeometry x="1260" y="1720" width="60" height="30" as="geometry" />
        </mxCell>
        <mxCell id="ozB75tdWuCOPc9oadPOf-47" value="&lt;font style=&quot;font-size: 10px;&quot;&gt;Отчет о&amp;nbsp;&lt;br&gt;безопасности&lt;br&gt;&lt;/font&gt;" style="text;html=1;strokeColor=none;fillColor=none;align=center;verticalAlign=middle;whiteSpace=wrap;rounded=0;rotation=0;" vertex="1" parent="1">
          <mxGeometry x="1310" y="1664" width="160" height="10" as="geometry" />
        </mxCell>
        <mxCell id="ozB75tdWuCOPc9oadPOf-51" value="&lt;font style=&quot;font-size: 10px;&quot;&gt;Администратор&lt;/font&gt;" style="text;html=1;strokeColor=none;fillColor=none;align=center;verticalAlign=middle;whiteSpace=wrap;rounded=0;rotation=-90;" vertex="1" parent="1">
          <mxGeometry x="1680" y="1720" width="60" height="30" as="geometry" />
        </mxCell>
        <mxCell id="ozB75tdWuCOPc9oadPOf-54" value="&lt;font style=&quot;font-size: 10px;&quot;&gt;Данные о заказе&lt;/font&gt;" style="text;html=1;strokeColor=none;fillColor=none;align=center;verticalAlign=middle;whiteSpace=wrap;rounded=0;rotation=-90;" vertex="1" parent="1">
          <mxGeometry x="1754" y="1500" width="160" height="10" as="geometry" />
        </mxCell>
        <mxCell id="ozB75tdWuCOPc9oadPOf-57" value="&lt;font style=&quot;font-size: 10px;&quot;&gt;Данные о&lt;br&gt;расходных материалах&lt;br&gt;&lt;/font&gt;" style="text;html=1;strokeColor=none;fillColor=none;align=center;verticalAlign=middle;whiteSpace=wrap;rounded=0;rotation=-90;" vertex="1" parent="1">
          <mxGeometry x="1480" y="1710" width="160" height="16" as="geometry" />
        </mxCell>
        <mxCell id="ozB75tdWuCOPc9oadPOf-59" value="&lt;font style=&quot;font-size: 10px;&quot;&gt;Жкрнал работы&lt;br&gt;системы&lt;br&gt;&lt;/font&gt;" style="text;html=1;strokeColor=none;fillColor=none;align=center;verticalAlign=middle;whiteSpace=wrap;rounded=0;rotation=0;" vertex="1" parent="1">
          <mxGeometry x="1990" y="1378" width="140" height="15" as="geometry" />
        </mxCell>
        <mxCell id="ozB75tdWuCOPc9oadPOf-60" value="" style="endArrow=classic;html=1;rounded=0;entryX=0.95;entryY=0.991;entryDx=0;entryDy=0;entryPerimeter=0;" edge="1" parent="1" target="FY81dZ7kDu10n6bw8b0m-14">
          <mxGeometry width="50" height="50" relative="1" as="geometry">
            <mxPoint x="990" y="1820" as="sourcePoint" />
            <mxPoint x="1580" y="1460" as="targetPoint" />
            <Array as="points">
              <mxPoint x="1491" y="1820" />
            </Array>
          </mxGeometry>
        </mxCell>
        <mxCell id="ozB75tdWuCOPc9oadPOf-71" value="" style="endArrow=classic;html=1;rounded=0;entryX=0.378;entryY=1.005;entryDx=0;entryDy=0;entryPerimeter=0;" edge="1" parent="1">
          <mxGeometry width="50" height="50" relative="1" as="geometry">
            <mxPoint x="1710" y="1330" as="sourcePoint" />
            <mxPoint x="1710" y="1211" as="targetPoint" />
          </mxGeometry>
        </mxCell>
        <mxCell id="ozB75tdWuCOPc9oadPOf-72" value="&lt;font style=&quot;font-size: 10px;&quot;&gt;Администратор&lt;/font&gt;" style="text;html=1;strokeColor=none;fillColor=none;align=center;verticalAlign=middle;whiteSpace=wrap;rounded=0;rotation=-90;" vertex="1" parent="1">
          <mxGeometry x="1670" y="1260" width="60" height="30" as="geometry" />
        </mxCell>
        <mxCell id="ozB75tdWuCOPc9oadPOf-75" value="&lt;font style=&quot;font-size: 10px;&quot;&gt;Система&lt;br&gt;&lt;/font&gt;" style="text;html=1;strokeColor=none;fillColor=none;align=center;verticalAlign=middle;whiteSpace=wrap;rounded=0;rotation=-90;" vertex="1" parent="1">
          <mxGeometry x="1620" y="1260" width="60" height="30" as="geometry" />
        </mxCell>
        <mxCell id="ozB75tdWuCOPc9oadPOf-78" value="&lt;font style=&quot;font-size: 10px;&quot;&gt;Идентификатор администратора&lt;/font&gt;" style="text;html=1;strokeColor=none;fillColor=none;align=center;verticalAlign=middle;whiteSpace=wrap;rounded=0;rotation=-90;" vertex="1" parent="1">
          <mxGeometry x="1380" y="1230" width="60" height="30" as="geometry" />
        </mxCell>
        <mxCell id="ozB75tdWuCOPc9oadPOf-80" value="&lt;font style=&quot;font-size: 10px;&quot;&gt;Данные о работе системы безопасности&lt;/font&gt;" style="text;html=1;strokeColor=none;fillColor=none;align=center;verticalAlign=middle;whiteSpace=wrap;rounded=0;rotation=0;" vertex="1" parent="1">
          <mxGeometry x="1600" y="1544" width="160" height="10" as="geometry" />
        </mxCell>
        <mxCell id="ozB75tdWuCOPc9oadPOf-81" value="1" style="text;html=1;strokeColor=none;fillColor=none;align=center;verticalAlign=middle;whiteSpace=wrap;rounded=0;" vertex="1" parent="1">
          <mxGeometry x="1140" y="1205" width="10" height="15" as="geometry" />
        </mxCell>
        <mxCell id="ozB75tdWuCOPc9oadPOf-82" value="2" style="text;html=1;strokeColor=none;fillColor=none;align=center;verticalAlign=middle;whiteSpace=wrap;rounded=0;" vertex="1" parent="1">
          <mxGeometry x="1780" y="1195" width="10" height="15" as="geometry" />
        </mxCell>
        <mxCell id="ozB75tdWuCOPc9oadPOf-83" value="3" style="text;html=1;strokeColor=none;fillColor=none;align=center;verticalAlign=middle;whiteSpace=wrap;rounded=0;" vertex="1" parent="1">
          <mxGeometry x="1490" y="1425" width="10" height="15" as="geometry" />
        </mxCell>
        <mxCell id="ozB75tdWuCOPc9oadPOf-84" value="5" style="text;html=1;strokeColor=none;fillColor=none;align=center;verticalAlign=middle;whiteSpace=wrap;rounded=0;" vertex="1" parent="1">
          <mxGeometry x="1810" y="1665" width="10" height="15" as="geometry" />
        </mxCell>
        <mxCell id="ozB75tdWuCOPc9oadPOf-85" value="4" style="text;html=1;strokeColor=none;fillColor=none;align=center;verticalAlign=middle;whiteSpace=wrap;rounded=0;" vertex="1" parent="1">
          <mxGeometry x="1330" y="1665" width="10" height="15" as="geometry" />
        </mxCell>
        <mxCell id="ozB75tdWuCOPc9oadPOf-86" value="6" style="text;html=1;strokeColor=none;fillColor=none;align=center;verticalAlign=middle;whiteSpace=wrap;rounded=0;" vertex="1" parent="1">
          <mxGeometry x="2000" y="1415" width="10" height="15" as="geometry" />
        </mxCell>
      </root>
    </mxGraphModel>
  </diagram>
  <diagram id="30CSTh-y9SVbLgZfz-_A" name="Страница — 2">
    <mxGraphModel dx="5413" dy="2800" grid="1" gridSize="10" guides="1" tooltips="1" connect="1" arrows="1" fold="1" page="1" pageScale="1" pageWidth="3300" pageHeight="2339" math="0" shadow="0">
      <root>
        <mxCell id="0" />
        <mxCell id="1" parent="0" />
      </root>
    </mxGraphModel>
  </diagram>
</mxfile>
